<?xml version="1.0" encoding="UTF-8" standalone="no"?>
<!-- Created with Inkscape (http://www.inkscape.org/) -->

<svg
   width="117.96024"
   height="119.75494"
   viewBox="0 0 31.210313 31.68516"
   version="1.1"
   id="svg1"
   xml:space="preserve"
   xmlns="http://www.w3.org/2000/svg"
   xmlns:svg="http://www.w3.org/2000/svg"><defs
     id="defs1" /><g
     id="layer2"
     transform="translate(-0.38951918,-0.31092665)"><path
       d="m 15.073554,4.5034692 -2.67e-4,4.41e-4 -0.0027,0.0045 C 9.7388887,1.2947332 7.9368187,0.26935125 7.1462537,0.31220725 6.2399077,0.36136725 3.9442897,1.3155532 1.9933667,4.5441002 0.04244872,7.7726381 0.26527272,10.248677 0.64325072,11.073906 c 0.251173,0.548365 1.54439698,1.452621 4.42746798,3.237523 l -0.004,0.0067 c 0.420845,0.260148 0.974477,0.596211 1.46181,0.894198 0.439124,0.268856 0.805099,0.494445 1.317958,0.805521 -1.224395,2.614938 -1.015716,4.574742 -0.687747,5.29078 0.329701,0.71982 2.07609,1.838344 7.4004193,5.064186 l -0.0027,0.0044 c 0.475828,0.28753 0.748763,0.450003 1.18118,0.710133 0.431732,0.261048 0.702694,0.428241 1.178415,0.715706 l 0.0027,-0.0044 c 5.33171,3.213629 7.133785,4.239014 7.924342,4.196153 0.906347,-0.04915 3.201965,-1.003346 5.152889,-4.231893 1.950917,-3.228537 1.728092,-5.704564 1.350114,-6.529805 -0.329704,-0.719798 -2.075646,-1.838076 -7.399976,-5.063918 l 0.0027,-0.0045 c -0.475722,-0.287465 -0.7493,-0.450328 -1.181622,-0.7104 -0.431838,-0.261088 -0.702145,-0.427909 -1.177974,-0.715439 l -0.0027,0.0044 c -5.331708,-3.213628 -7.134225,-4.239267 -7.924785,-4.19642 -0.788847,0.04279 -2.629663,0.773039 -4.3800433,3.089815 -1.011211,-0.616889 -1.956156,-1.198666 -2.768053,-1.713109 l -0.0021,0.0035 c -1.454465,-0.920484 -2.466815,-1.618117 -2.582636,-1.871074 -0.223494,-0.4879289 -0.354682,-1.9519909 0.79883,-3.8609149 1.153508,-1.9089189 2.510356,-2.4731809 3.046259,-2.5022509 0.467436,-0.02534 3.1904923,1.582734 6.3430323,3.4827279 l 0.0016,-0.0027 c 0.28134,0.170006 0.442043,0.268283 0.697409,0.422594 0.255344,0.154227 0.416721,0.250644 0.698002,0.420615 l -0.0016,0.0027 c 3.147738,1.907935 5.838059,3.5701939 6.03301,3.9957789 0.08728,0.190579 0.157635,0.534062 0.145782,0.990751 l 0.692619,0.418531 c 0.480369,0.290274 0.750871,0.458521 1.177898,0.716562 0.415029,0.249658 0.69501,0.415185 1.146756,0.688164 0.571549,-1.87586 0.385978,-3.255317 0.12244,-3.830689 -0.329694,-0.719814 -2.076094,-1.8383339 -7.400418,-5.0641849 l 0.0027,-0.0045 C 16.95751,5.6416841 16.684372,5.4790871 16.25205,5.2190152 15.820218,4.9579182 15.549461,4.7908382 15.073635,4.5033092 Z M 20.63426,17.408279 c 0.281341,0.170007 0.441601,0.268017 0.696968,0.422328 0.255338,0.154235 0.417163,0.250912 0.698444,0.420882 l -0.0016,0.0027 c 3.147738,1.907935 5.838065,3.570186 6.033009,3.995779 0.223489,0.487938 0.354944,1.951556 -0.798563,3.860473 -1.153512,1.908925 -2.510633,2.47364 -3.046526,2.502693 -0.467438,0.02535 -3.190495,-1.582736 -6.343032,-3.482728 l -0.0016,0.0027 c -0.281281,-0.16997 -0.442097,-0.268315 -0.69741,-0.422594 -0.255392,-0.154268 -0.416661,-0.250608 -0.698002,-0.420615 l 0.0016,-0.0027 c -3.147737,-1.907934 -5.838111,-3.570108 -6.033009,-3.995778 -0.170797,-0.372886 -0.285601,-1.316968 0.183518,-2.592852 0.524288,0.315738 0.901902,0.537634 1.35415,0.808578 0.503769,0.300909 1.0749,0.645094 1.506996,0.900356 l 0.0046,-0.0075 c 2.85733,1.682558 4.237878,2.392383 4.833905,2.360082 0.635601,-0.03446 1.954327,-0.517626 3.358325,-1.914576 -0.157194,-0.09546 -0.294858,-0.180628 -0.454393,-0.278199 l -0.694188,-0.421933 -0.698128,-0.419406 c -0.408365,-0.246133 -0.776585,-0.464946 -1.165718,-0.697752 -0.41076,0.233961 -0.758905,0.337533 -0.972953,0.349144 -0.272422,0.01478 -1.319344,-0.53131 -2.765518,-1.362594 l 0.0019,-0.0031 c -0.847307,-0.4863 -1.82944,-1.068361 -2.874988,-1.695017 0.917507,-1.023922 1.815502,-1.366064 2.227684,-1.388411 0.467438,-0.02535 3.190495,1.582736 6.343031,3.482728 z"
       style="fill:#92d700;stroke-width:0.483421;stroke-linecap:round;paint-order:stroke fill markers"
       id="path1" /></g></svg>
