<?xml version="1.0" encoding="UTF-8" standalone="no"?>
<!-- Created with Inkscape (http://www.inkscape.org/) -->

<svg
   width="570.98456"
   height="156.46866"
   viewBox="0 0 151.073 41.398999"
   version="1.1"
   id="svg1"
   inkscape:version="1.3.2 (091e20e, 2023-11-25, custom)"
   sodipodi:docname="coplayLogo.svg"
   xml:space="preserve"
   inkscape:export-filename="coplayLogo.png"
   inkscape:export-xdpi="171.49326"
   inkscape:export-ydpi="171.49326"
   xmlns:inkscape="http://www.inkscape.org/namespaces/inkscape"
   xmlns:sodipodi="http://sodipodi.sourceforge.net/DTD/sodipodi-0.dtd"
   xmlns="http://www.w3.org/2000/svg"
   xmlns:svg="http://www.w3.org/2000/svg"><sodipodi:namedview
     id="namedview1"
     pagecolor="#ffffff"
     bordercolor="#000000"
     borderopacity="0.25"
     inkscape:showpageshadow="2"
     inkscape:pageopacity="0.0"
     inkscape:pagecheckerboard="0"
     inkscape:deskcolor="#d1d1d1"
     inkscape:document-units="mm"
     inkscape:zoom="1.4234351"
     inkscape:cx="299.97855"
     inkscape:cy="9.4840993"
     inkscape:window-width="1920"
     inkscape:window-height="1017"
     inkscape:window-x="1912"
     inkscape:window-y="-8"
     inkscape:window-maximized="1"
     inkscape:current-layer="layer1"
     showgrid="false" /><defs
     id="defs1" /><g
     inkscape:label="Layer 1"
     inkscape:groupmode="layer"
     id="layer1"
     transform="translate(-34.847089,-183.2841)"><text
       xml:space="preserve"
       style="font-size:6.35px;font-family:Arial;-inkscape-font-specification:Arial;opacity:1;fill:#000000;fill-opacity:1;stroke:none;stroke-width:2.814;stroke-linecap:round;stroke-dasharray:none;paint-order:stroke fill markers"
       x="-61.912498"
       y="182.03333"
       id="text32"><tspan
         sodipodi:role="line"
         id="tspan32"
         style="stroke-width:2.814"
         x="-61.912498"
         y="182.03333" /></text><g
       id="g92"
       transform="translate(2.5000828,4.9996228)"><g
         id="g93"><g
           id="g24"
           inkscape:label="word"
           style="display:inline;fill:#999999;fill-opacity:1"
           transform="matrix(0.07571113,0,0,0.07571113,21.766942,120.24523)"><path
             id="path24"
             style="display:inline;opacity:1;fill:#999999;fill-opacity:1;stroke-width:1.76124"
             d="M 205.31184,832.62355 V 1001.7042 H 494.15242 V 950.62912 H 258.14789 v -65.16953 l 236.00453,0.007 v -52.84266 z m 302.93504,0 v 169.08065 h 288.8472 V 832.62355 Z m 302.94167,0 v 52.84266 l 236.00455,-0.007 v 14.09447 H 811.18855 V 1001.7042 H 1100.0291 V 832.62355 Z m 302.94165,0 v 39.5691 l 88.2609,44.29595 -88.2609,44.6402 v 40.5754 h 31.5719 l 112.7094,-58.16534 112.7027,58.16534 h 31.5719 v -40.5754 l -88.2609,-44.6402 88.2609,-44.29595 v -39.5691 h -31.5719 l -112.7027,56.47717 -112.7094,-56.47717 z m 302.657,0 v 52.84266 h 53.0214 v -52.84266 z m 67.1225,0 v 169.08065 h 288.8406 V 832.62355 Z m 302.9417,0 v 169.08065 h 52.836 V 885.45959 h 184.049 v 116.24461 h 51.9555 V 832.62355 Z M 561.08293,885.46621 h 183.1751 v 65.16291 h -183.1751 z m 975.66277,0 h 183.1685 v 65.16291 h -183.1685 z m -119.9585,14.09447 0.093,102.14352 h 52.8426 l -0.099,-102.14352 z m -552.76261,36.97397 h 183.16851 v 14.09447 H 864.02459 Z" /></g><path
           id="path25"
           style="fill:#92d700;fill-opacity:1;stroke:none;stroke-width:1.293;stroke-linejoin:round;stroke-dasharray:none;paint-order:stroke fill markers"
           d="m 49.93548,186.69671 c -0.06057,-0.003 -0.106057,0.0407 -0.100769,0.0977 0.0052,0.057 0.03011,0.1045 0.05529,0.10594 0.02515,0.002 0.07069,-0.0421 0.100769,-0.0971 0.03014,-0.055 0.0052,-0.10303 -0.05529,-0.10646 z m -6.47144,1.29398 c -0.03156,-0.01 -0.0766,-0.004 -0.132808,0.0181 -0.09606,0.0376 -0.321864,0.0809 -0.501778,0.0961 -0.179919,0.0153 -0.50767,0.18372 -0.728638,0.37465 -0.389056,0.3361 -0.930693,1.05235 -0.916223,1.21181 v 5.2e-4 c 0.01378,0.15175 0.850517,0.0425 1.120862,-0.14624 0.352084,-0.24591 1.227329,-1.31317 1.212329,-1.47847 -0.0037,-0.0407 -0.02218,-0.0666 -0.05374,-0.0765 z m 23.576856,0.61547 c -0.372938,0.0529 -0.703544,0.25542 -0.621668,0.44338 0.03102,0.0712 -0.01973,0.17186 -0.112137,0.22376 -0.146907,0.0826 -0.147164,0.10855 -0.0026,0.20722 0.229437,0.15655 0.387422,0.15336 0.545703,-0.0103 0.143224,-0.14752 0.330366,-0.14237 0.576709,0.016 0.114409,0.0736 0.128059,0.0435 0.05891,-0.12868 -0.06378,-0.15877 -0.04541,-0.2216 0.06201,-0.21549 0.354867,0.0202 0.232549,-0.46663 -0.133842,-0.53278 -0.119975,-0.0216 -0.248791,-0.0207 -0.373104,-0.003 z m 2.13217,0.0904 c -0.117342,0.008 -0.212122,0.0299 -0.254249,0.0682 -0.08284,0.0755 -0.205964,0.134 -0.272851,0.13022 -0.06687,-0.004 -0.117788,0.035 -0.113171,0.0858 0.0046,0.0507 -0.09977,0.11412 -0.233061,0.14005 -0.269964,0.0534 -0.579571,0.4954 -0.464571,0.663 0.04259,0.0621 0.167932,0.0808 0.292488,0.0434 0.119838,-0.0361 0.387334,-0.054 0.594279,-0.0398 l -5.16e-4,-5.1e-4 c 0.46331,0.0314 0.72241,-0.28314 0.417545,-0.50798 -0.111097,-0.0819 -0.160774,-0.20117 -0.128674,-0.308 0.04273,-0.14247 0.134582,-0.15739 0.501778,-0.0827 0.24722,0.0503 0.471977,0.0501 0.499711,-5.1e-4 0.06673,-0.12172 -0.486685,-0.21619 -0.838708,-0.19121 z m 4.015775,0.0393 c -0.05188,-0.007 -0.100491,-0.004 -0.141077,0.008 -0.05411,0.0162 -0.09355,0.0498 -0.10697,0.10387 -0.0193,0.0775 -0.322598,0.10532 -0.862996,0.0791 -0.59624,-0.0289 -0.829609,-0.003 -0.821139,0.0899 0.006,0.0716 0.0453,0.13254 0.0863,0.13487 0.041,0.003 0.109752,0.10574 0.152962,0.22997 0.0731,0.2103 0.122654,0.22376 0.716752,0.19533 0.61283,-0.0293 0.92737,0.0731 0.94878,0.30903 0.0113,0.12425 -0.44278,0.0896 -0.58136,-0.0444 -0.14087,-0.1362 -0.748203,0.15305 -0.877983,0.41806 -0.1347,0.27512 -0.297497,0.44177 -0.423747,0.4346 -0.167228,-0.01 -0.152501,-0.21267 0.01964,-0.27079 0.22177,-0.0748 0.175312,-0.16747 -0.166398,-0.33124 -0.333178,-0.15966 -2.004499,-0.24816 -1.991609,-0.10594 0.0042,0.0466 -0.08488,0.0512 -0.197404,0.0103 -0.112554,-0.0409 -0.324923,-0.0502 -0.472323,-0.0217 -0.199809,0.0396 -0.255001,0.10909 -0.216524,0.27492 0.04495,0.19381 0.125019,0.22844 0.624251,0.26975 0.795132,0.0658 0.78087,0.0595 0.606165,0.26252 -0.134683,0.15605 -0.216229,0.16398 -0.568958,0.0527 -0.346246,-0.10926 -0.437651,-0.10283 -0.576709,0.0408 -0.107209,0.11008 -0.298969,0.15555 -0.542086,0.12764 -0.537122,-0.0617 -0.635388,-0.0454 -0.621667,0.10077 0.0067,0.0712 0.232276,0.22871 0.501261,0.34985 0.472245,0.21269 0.49527,0.21404 0.679545,0.0434 0.162455,-0.14969 0.253626,-0.15599 0.611849,-0.0429 0.231503,0.0731 0.417402,0.0921 0.412895,0.0424 -0.0046,-0.0498 0.175318,-0.0514 0.399459,-0.003 0.229746,0.049 0.496846,0.0419 0.612366,-0.016 0.290028,-0.14538 0.402306,0.0702 0.121956,0.2341 -0.12315,0.072 -0.404916,0.1294 -0.626318,0.12764 -0.221409,-0.002 -0.481469,0.0366 -0.577743,0.0847 -0.147554,0.074 -0.976137,0.0794 -1.543575,0.0103 -0.08622,-0.01 -0.425779,0.008 -0.754476,0.0398 -0.472487,0.0467 -0.631311,0.027 -0.758093,-0.0956 -0.0882,-0.0853 -0.156262,-0.11154 -0.151412,-0.0579 0.0049,0.0536 -0.160017,0.11544 -0.366386,0.13746 -0.284597,0.0303 -0.411773,-0.005 -0.526583,-0.14521 -0.138624,-0.16969 -0.150106,-0.16573 -0.133842,0.0475 0.01609,0.21046 -0.03267,0.2301 -0.507462,0.20309 -0.323925,-0.0185 -0.504541,-0.068 -0.470773,-0.12971 0.03014,-0.055 -0.01657,-0.10405 -0.103869,-0.10903 -0.10005,-0.006 -0.141668,-0.0666 -0.112138,-0.16485 0.0258,-0.0856 -0.03765,-0.24499 -0.141077,-0.35398 -0.25353,-0.26715 -0.160857,-0.56975 0.146245,-0.47749 0.324415,0.0975 0.830911,-0.0317 0.814937,-0.20774 -0.01592,-0.17551 -0.639437,-0.25468 -0.933793,-0.11834 -0.236529,0.10952 -1.911247,-0.22157 -2.099097,-0.41496 -0.09875,-0.10169 -0.190416,-0.0876 -0.403076,0.0605 -0.206312,0.14376 -0.333334,0.16424 -0.509013,0.0832 -0.233734,-0.10787 -0.706946,-0.13339 -1.679484,-0.091 -0.283101,0.0123 -0.813837,0.0313 -1.179256,0.0429 -0.677341,0.0214 -1.230032,0.17392 -1.21543,0.33486 0.0045,0.0492 -0.05895,0.0607 -0.140043,0.0264 -0.08152,-0.0346 -0.193041,-0.0161 -0.248047,0.0403 -0.07007,0.0728 -0.155029,0.05 -0.285254,-0.076 -0.101917,-0.0986 -0.246289,-0.18281 -0.32091,-0.18707 -0.199497,-0.0114 -0.375455,0.26145 -0.288872,0.44752 0.147822,0.31775 -0.05829,0.38643 -0.374137,0.12454 -0.511662,-0.42428 -0.670844,-0.54467 -0.72502,-0.54726 -0.210436,-0.01 -0.875212,0.19725 -0.979786,0.30541 -0.06854,0.0712 -0.208397,0.11223 -0.310575,0.0915 -0.102165,-0.0207 -0.345502,0.0586 -0.540535,0.17673 -0.241699,0.14643 -0.39126,0.17924 -0.470256,0.10284 -0.07897,-0.0763 -0.180383,-0.0794 -0.318844,-0.0103 -0.111731,0.056 -0.333724,0.10216 -0.492993,0.10284 -0.159292,5.7e-4 -0.325564,0.0189 -0.370003,0.0403 -0.193798,0.0932 -1.206524,0.007 -1.790072,-0.15348 l 10e-4,0.002 c -0.349749,-0.0958 -0.707564,-0.1965 -0.7953,-0.22376 -0.08774,-0.0273 -0.244532,-0.0579 -0.3483,-0.0682 -0.103715,-0.0102 -0.165426,-0.0606 -0.137459,-0.11162 0.02799,-0.051 -0.04593,-0.12805 -0.164331,-0.17105 -0.118416,-0.0431 -0.219652,-0.12428 -0.224792,-0.18086 -0.0051,-0.0565 -0.147601,-0.0888 -0.31626,-0.0718 -0.168708,0.0172 -0.339069,-0.0157 -0.378788,-0.0739 -0.03965,-0.0578 -0.146381,-0.079 -0.237195,-0.047 -0.09079,0.0319 -0.234081,0.0675 -0.318327,0.0786 -0.08428,0.0112 -0.336815,0.0472 -0.561206,0.0801 -0.224375,0.0329 -0.772382,0.0428 -1.217497,0.0217 -0.350239,-0.0166 -0.56552,-0.0373 -0.728121,-0.0801 -0.0866,0.0617 -0.199609,0.13673 -0.240295,0.17415 -0.157389,0.14479 -0.388707,0.31259 -0.514181,0.37259 -0.230906,0.11037 -0.580722,0.64823 -0.561722,0.86403 0.01722,0.19694 0.405656,0.2534 0.699698,0.1018 0.152816,-0.0788 0.420513,-0.2149 0.594796,-0.3023 0.174267,-0.0874 0.524376,-0.33213 0.77773,-0.54364 0.423188,-0.35328 0.816568,-0.60124 0.944129,-0.59324 0.02829,0.002 0.02438,0.14085 -0.0093,0.30902 -0.03363,0.1682 -0.02958,0.30654 0.0093,0.30954 0.03935,0.003 -0.122183,0.17904 -0.358635,0.39223 -0.236407,0.21323 -0.46735,0.38592 -0.51263,0.38292 -0.04537,-0.003 -0.294187,0.19885 -0.553454,0.447 -0.517113,0.49501 -0.553781,0.70602 -0.224793,1.30018 0.234442,0.42338 0.19898,0.65395 -0.121439,0.78548 -0.355736,0.14602 -0.653549,0.32072 -0.843877,0.49609 -0.09628,0.0887 -0.241291,0.158 -0.322461,0.154 -0.0811,-0.004 -0.31858,0.15836 -0.527616,0.3607 -0.209014,0.20236 -0.65123,0.57337 -0.982886,0.82424 -0.331097,0.25123 -0.708232,0.60526 -0.836641,0.78755 -0.253626,0.36 -0.915357,0.83082 -1.149284,0.81752 -0.07979,-0.004 -0.270322,0.20495 -0.42323,0.46561 -0.152901,0.26065 -0.282854,0.4301 -0.288354,0.3762 -0.0056,-0.054 -0.149105,0.0367 -0.318844,0.20205 -0.169734,0.16532 -0.410817,0.32631 -0.535885,0.35761 -0.125095,0.0313 -0.223391,0.10027 -0.218591,0.15347 0.0048,0.0531 -0.05632,0.0924 -0.135909,0.0884 -0.07959,-0.005 -0.164025,0.0561 -0.187585,0.13436 -0.02355,0.0784 -0.18284,0.166 -0.353984,0.1943 -0.171105,0.0284 -0.333885,0.0929 -0.361735,0.14366 -0.02782,0.0507 -0.140056,0.0871 -0.249597,0.0811 -0.205977,-0.0117 -0.416035,0.26772 -0.500745,0.66714 -0.04769,0.22492 -0.03193,0.22993 0.822172,0.27853 0.707938,0.0403 0.91244,0.0884 1.097091,0.25632 0.358233,0.32582 0.651428,0.38827 1.036629,0.22066 0.192844,-0.0839 0.347665,-0.18423 0.344165,-0.22273 -0.0035,-0.0384 0.3434,-0.0633 0.770496,-0.0543 0.524383,0.0104 0.779832,0.0534 0.787032,0.13229 0.0065,0.0721 0.129438,0.10437 0.31781,0.0853 0.224126,-0.0228 0.310861,0.0102 0.320911,0.12144 0.0076,0.0838 0.05536,0.12757 0.105936,0.0977 0.05062,-0.0301 0.135154,0.007 0.188102,0.0822 0.215983,0.30623 0.48072,0.44619 0.621668,0.32867 0.175021,-0.14588 0.245414,-0.0293 0.253214,0.41909 0.0035,0.19865 0.07056,0.4344 0.149345,0.524 0.07879,0.0895 0.186327,0.31752 0.238745,0.50695 0.07458,0.26933 0.05749,0.35679 -0.07855,0.40049 -0.09567,0.0308 -0.202258,0.1031 -0.236678,0.1602 -0.114927,0.19158 -0.194994,-0.0203 -0.112654,-0.29766 0.18274,-0.61561 0.0027,-0.92266 -0.474907,-0.81029 -0.25884,0.0608 -0.373367,0.0414 -0.504362,-0.0853 -0.182487,-0.17643 -0.44612,-0.1475 -0.822172,0.0904 -0.156419,0.099 -0.210752,0.24034 -0.188102,0.48989 0.02809,0.30981 -0.0012,0.35081 -0.252181,0.35037 -0.444494,-7.4e-4 -0.748597,0.0703 -1.037663,0.24236 -0.0809,0.0481 -0.241198,0.12472 -0.356567,0.17002 -0.291713,0.11482 -0.793392,0.82357 -0.769462,1.08727 0.01501,0.16534 0.08958,0.22591 0.306958,0.25011 l 0.286804,0.032 -0.283187,0.0269 c -0.15592,0.0149 -0.254124,0.07 -0.218074,0.12248 0.0361,0.0526 0.01606,0.18492 -0.04444,0.29404 -0.09168,0.16516 -0.07563,0.23453 0.0956,0.41496 0.113863,0.12006 0.273038,0.19408 0.356568,0.16588 0.130208,-0.044 0.13468,-0.0216 0.03204,0.1633 -0.121962,0.21977 -0.373307,0.28174 -0.390157,0.0961 -0.0051,-0.0572 -0.06683,-0.0955 -0.136943,-0.0853 -0.0748,0.0109 -0.137115,-0.0888 -0.150895,-0.24081 -0.0138,-0.15206 -0.07612,-0.2512 -0.150895,-0.2403 -0.07013,0.0102 -0.133793,-0.0514 -0.141593,-0.13694 -0.0078,-0.0855 -0.09654,-0.16467 -0.196888,-0.17467 -0.100419,-0.0104 -0.282315,-0.0358 -0.404109,-0.0563 -0.16289,-0.0274 -0.205054,0.0101 -0.159164,0.14211 0.03606,0.1036 -0.02546,0.23996 -0.145727,0.32246 l -0.208773,0.14262 0.280603,0.22066 c 0.293657,0.23071 0.286389,0.35123 -0.02015,0.33383 -0.183947,-0.0105 -0.193869,0.14154 -0.02532,0.38499 0.0511,0.0738 0.07116,0.17393 0.04444,0.22273 -0.02672,0.0488 0.02238,0.1474 0.109555,0.2191 0.08716,0.0718 0.149879,0.21633 0.139009,0.32092 -0.01082,0.10464 0.0494,0.21938 0.133842,0.25528 0.08439,0.0359 0.160048,0.13707 0.167948,0.22427 0.0079,0.0873 0.06123,0.16133 0.11834,0.16433 0.05714,0.003 0.114057,0.11945 0.126607,0.25787 0.01256,0.13842 0.0866,0.31644 0.164848,0.39584 0.07825,0.0794 0.169414,0.26153 0.202054,0.40514 0.03267,0.14362 0.102643,0.27938 0.156063,0.30128 0.05339,0.0219 0.102538,0.0984 0.109038,0.17001 0.01447,0.15944 0.475201,0.39596 0.808219,0.41496 0.336086,0.0191 0.274043,0.33394 -0.108004,0.54881 -0.158368,0.0891 -0.283953,0.20561 -0.279053,0.25941 0.0048,0.0538 -0.08465,0.0933 -0.198954,0.0863 -0.114268,-0.006 -0.211191,-0.0507 -0.215491,-0.0982 -0.0043,-0.0474 -0.0781,-0.0906 -0.163814,-0.0956 -0.08572,-0.005 -0.157914,0.0299 -0.160714,0.077 -0.02303,0.38174 -0.139555,0.67738 -0.286804,0.72708 -0.08057,0.0273 -0.138377,0.14069 -0.128157,0.2527 0.0141,0.15489 -0.05046,0.19723 -0.268201,0.17983 -0.528473,-0.0439 -0.962546,0.0768 -0.912606,0.25374 0.06596,0.23379 0.263542,0.28256 0.434082,0.10697 0.108357,-0.1121 0.159892,-0.11712 0.202572,-0.0191 0.07236,0.1661 -0.26076,0.70135 -0.38654,0.62115 -0.0509,-0.0324 -0.151115,0.03 -0.221175,0.14004 -0.07002,0.11018 -0.160935,0.16734 -0.202055,0.12764 -0.04121,-0.0399 -0.07105,-0.0288 -0.06615,0.0248 0.0048,0.0535 -0.146752,0.17624 -0.33693,0.27234 -0.401411,0.20267 -0.447529,0.44096 -0.07545,0.39016 0.218231,-0.0297 0.255533,0.008 0.312643,0.31574 0.03987,0.21465 0.11513,0.34201 0.19482,0.33021 0.15122,-0.0223 0.420634,0.47701 0.409794,0.75965 -0.0041,0.10681 0.05336,0.2333 0.127641,0.2806 0.07432,0.0474 0.113093,0.16065 0.08578,0.25115 -0.03562,0.1186 -0.125035,0.14213 -0.31781,0.0842 -0.165685,-0.0497 -0.263749,-0.0369 -0.257349,0.0341 0.0057,0.0631 0.01377,0.14995 0.01757,0.19275 0.0039,0.0428 0.0935,0.0824 0.198954,0.0884 0.105497,0.006 0.271143,0.0765 0.368453,0.15658 0.150024,0.12353 0.191885,0.1138 0.273885,-0.0646 0.05316,-0.11566 0.143185,-0.18026 0.200505,-0.14366 0.0573,0.0366 0.105687,0.0175 0.107487,-0.0424 0.0042,-0.15018 0.02229,-0.23313 0.09767,-0.44338 0.06118,-0.1706 0.07724,-0.17006 0.275953,0.006 0.116015,0.1034 0.207921,0.14504 0.204121,0.0935 -0.0038,-0.0514 0.04074,-0.0256 0.09922,0.0579 0.05846,0.0835 0.09809,0.23328 0.08785,0.33228 -0.03172,0.30656 0.284494,0.33389 0.541052,0.0465 0.132421,-0.14778 0.282787,-0.25481 0.334347,-0.23771 0.05157,0.017 0.08987,-0.0107 0.08527,-0.0615 -0.0046,-0.0507 0.105882,-0.11492 0.245463,-0.14262 0.248846,-0.0493 0.344132,-0.45334 0.110071,-0.46664 -0.05846,-0.003 -0.04031,-0.11808 0.04031,-0.25528 0.08075,-0.13714 0.114658,-0.25073 0.07545,-0.25373 -0.0392,-0.002 -0.0074,-0.0711 0.07183,-0.15245 0.07884,-0.0816 0.182174,-0.13367 0.229444,-0.11627 0.244194,0.0901 0.863131,-0.7076 0.715718,-0.92243 -0.0429,-0.0629 -0.163968,-0.0958 -0.269234,-0.0739 -0.117006,0.0244 -0.196522,-0.0137 -0.204122,-0.0982 -0.0069,-0.0761 -0.07925,-0.20358 -0.160714,-0.28318 -0.08146,-0.0796 -0.194497,-0.23995 -0.251147,-0.35657 -0.05668,-0.11657 -0.117276,-0.16347 -0.134876,-0.10387 -0.02041,0.0687 -0.219734,0.0739 -0.545186,0.0145 -0.644125,-0.11768 -0.914537,-0.0324 -1.019576,0.32143 -0.109293,0.3682 -0.260403,0.15002 -0.296623,-0.4284 -0.02504,-0.3999 5.19e-4,-0.44202 0.321945,-0.53072 0.429441,-0.11857 0.597182,-0.0539 0.706933,0.2713 0.109234,0.32351 0.249772,0.32752 0.36897,0.0103 0.05199,-0.13833 0.245404,-0.29919 0.429948,-0.35709 0.184535,-0.058 0.354871,-0.18809 0.378271,-0.28887 0.05583,-0.24098 0.182458,-0.22364 0.481108,0.0651 0.225929,0.21846 0.487699,0.87332 0.635103,1.58802 0.0084,0.041 0.11692,0.13112 0.240812,0.20102 0.17256,0.0972 0.350827,0.0942 0.761711,-0.0145 0.501675,-0.13274 0.55433,-0.12986 0.818038,0.047 0.155079,0.104 0.389128,0.18593 0.519865,0.18293 0.410102,-0.0104 0.499081,0.0262 0.515731,0.21291 0.01242,0.13971 -0.07354,0.17731 -0.373621,0.16381 -0.371811,-0.0172 -0.765549,0.17992 -1.255737,0.62891 -0.26252,0.24048 -0.621758,0.40605 -1.02061,0.47025 -0.182015,0.0294 -0.327478,0.0934 -0.322978,0.14263 0.0045,0.0492 -0.08681,0.0662 -0.203088,0.0377 -0.116265,-0.0284 -0.207472,-0.008 -0.202572,0.046 0.0049,0.0538 -0.04961,0.095 -0.120922,0.092 -0.21152,-0.009 -0.377473,0.1333 -0.400493,0.34416 -0.01185,0.10856 -0.02711,0.24343 -0.03411,0.29973 -0.02891,0.23212 0.04681,0.35381 0.274918,0.44131 0.331838,0.12727 0.498619,0.0878 0.695048,-0.16278 0.09238,-0.1178 0.173518,-0.17739 0.179318,-0.13229 0.006,0.0451 0.179899,-0.0838 0.387056,-0.2868 0.58353,-0.57188 0.634602,-0.60307 0.872815,-0.52917 0.146519,0.0455 0.240105,0.0134 0.272335,-0.094 0.02702,-0.0899 0.111052,-0.15955 0.186552,-0.15555 0.07545,0.004 0.193656,-0.0497 0.262516,-0.11989 0.06875,-0.0702 0.26637,-0.20705 0.439767,-0.30385 l 0.315226,-0.1757 0.403076,0.40927 c 0.221601,0.22537 0.446508,0.38382 0.500228,0.35192 0.05626,-0.0334 0.07779,0.008 0.05064,0.0987 -0.02592,0.0861 -0.08761,0.13102 -0.13746,0.0992 -0.04988,-0.032 -0.112716,-0.0183 -0.139526,0.0305 -0.02673,0.0488 -0.187039,0.10924 -0.356567,0.13384 -0.239956,0.0349 -0.350368,0.14797 -0.498161,0.51057 l -0.189653,0.4656 0.30024,0.23875 c 0.25252,0.20072 0.430331,0.2452 1.11001,0.2775 0.445115,0.0211 0.993122,0.0112 1.217497,-0.0217 0.224391,-0.0329 0.476926,-0.0689 0.561206,-0.0801 0.08425,-0.0111 0.227537,-0.0466 0.318327,-0.0785 0.09081,-0.032 0.197545,-0.0108 0.237195,0.047 0.03972,0.0582 0.21008,0.0911 0.378788,0.0739 0.168659,-0.017 0.31116,0.0153 0.31626,0.0718 0.0051,0.0566 0.106376,0.13777 0.224792,0.18087 0.118405,0.043 0.192321,0.12005 0.164331,0.17105 -0.02797,0.051 0.03374,0.1009 0.137459,0.1111 0.103768,0.0103 0.26056,0.0409 0.3483,0.0682 0.08774,0.0273 0.445551,0.12796 0.7953,0.22376 l -10e-4,-0.002 c 0.583548,0.1604 1.596274,0.24616 1.790072,0.15296 0.04444,-0.0214 0.210711,-0.0392 0.370003,-0.0398 0.159269,-6.8e-4 0.381262,-0.0468 0.492993,-0.10283 0.138461,-0.0691 0.239874,-0.066 0.318844,0.0103 0.079,0.0764 0.229075,0.0436 0.470772,-0.10283 0.195035,-0.11817 0.437854,-0.19795 0.540019,-0.17725 0.102178,0.0208 0.242552,-0.0198 0.311092,-0.091 0.104574,-0.10816 0.768833,-0.31541 0.979269,-0.30541 0.05418,0.003 0.213358,0.12246 0.72502,0.54674 0.315843,0.26189 0.521959,0.19372 0.374137,-0.12403 -0.08658,-0.18607 0.08937,-0.45892 0.288872,-0.44752 0.07462,0.004 0.21951,0.0885 0.321427,0.18707 0.130225,0.126 0.215184,0.14877 0.285254,0.076 0.05501,-0.0564 0.166527,-0.0754 0.248047,-0.0408 0.0811,0.0344 0.144543,0.0229 0.140043,-0.0264 -0.0146,-0.16094 0.537572,-0.31295 1.214913,-0.33435 0.365419,-0.0116 0.896155,-0.0306 1.179256,-0.0429 0.972538,-0.0424 1.44575,-0.0169 1.679484,0.0909 0.175679,0.081 0.303218,0.06 0.50953,-0.0837 0.212658,-0.1481 0.303809,-0.16163 0.402559,-0.0599 0.18785,0.19341 1.862568,0.52448 2.099097,0.41496 0.294356,-0.13634 0.917873,-0.0577 0.933793,0.11782 0.01597,0.17601 -0.490522,0.30576 -0.814937,0.20826 -0.307102,-0.0923 -0.399775,0.21034 -0.146245,0.47749 0.103429,0.10899 0.166877,0.26838 0.141077,0.35398 -0.02953,0.0982 0.01209,0.15885 0.112138,0.16485 0.0873,0.005 0.134009,0.054 0.103869,0.10904 -0.03377,0.0617 0.146848,0.11121 0.470773,0.12971 0.474789,0.027 0.523552,0.007 0.507462,-0.20309 -0.01626,-0.21327 -0.0048,-0.21723 0.133842,-0.0475 0.11481,0.14034 0.241986,0.17551 0.526583,0.14521 0.206369,-0.022 0.371286,-0.0839 0.366386,-0.13746 -0.0049,-0.0537 0.06321,-0.0279 0.151412,0.0574 0.126782,0.1226 0.285606,0.14282 0.758093,0.0961 0.328697,-0.032 0.668256,-0.0498 0.754476,-0.0398 0.567438,0.0691 1.396021,0.0637 1.543575,-0.0103 0.09627,-0.0482 0.356334,-0.0867 0.577743,-0.0848 0.221402,0.002 0.503166,-0.0556 0.626318,-0.12764 0.280346,-0.16388 0.168073,-0.37947 -0.121956,-0.23409 -0.115512,0.0579 -0.38262,0.065 -0.612366,0.016 -0.224141,-0.0483 -0.404059,-0.0467 -0.399459,0.003 0.0045,0.0497 -0.181392,0.0307 -0.412895,-0.0424 -0.358223,-0.1131 -0.448877,-0.1068 -0.611332,0.0429 -0.184277,0.17063 -0.207817,0.16877 -0.680062,-0.0439 -0.268985,-0.12114 -0.494561,-0.27865 -0.501261,-0.34985 -0.01372,-0.1462 0.08455,-0.16195 0.621667,-0.10025 0.243117,0.0279 0.434877,-0.0176 0.542086,-0.12764 0.139058,-0.14365 0.23098,-0.15061 0.577226,-0.0414 0.352729,0.11127 0.433758,0.10386 0.568441,-0.0522 0.174705,-0.20301 0.189484,-0.19672 -0.605648,-0.26252 -0.499234,-0.0413 -0.579301,-0.0759 -0.624251,-0.26975 -0.03848,-0.16583 0.0162,-0.23583 0.216007,-0.27543 0.1474,-0.0285 0.360287,-0.0187 0.472839,0.0222 0.112528,0.0409 0.201088,0.0363 0.196888,-0.0103 -0.01289,-0.14222 1.658432,-0.0542 1.991609,0.10542 0.341714,0.16377 0.388161,0.25697 0.166398,0.33177 -0.172156,0.0581 -0.186864,0.26078 -0.01964,0.27078 0.12625,0.007 0.28905,-0.15999 0.423747,-0.43511 0.129784,-0.26501 0.737115,-0.55375 0.877983,-0.41755 0.13858,0.134 0.59263,0.16869 0.58136,0.0444 -0.02141,-0.23597 -0.335951,-0.33832 -0.94878,-0.30902 -0.594102,0.0284 -0.643632,0.015 -0.716752,-0.19534 -0.04321,-0.12423 -0.111982,-0.22748 -0.152962,-0.23048 -0.04095,-0.002 -0.0798,-0.0628 -0.0863,-0.13436 -0.0085,-0.0929 0.224896,-0.11881 0.821139,-0.0899 0.540391,0.0263 0.843736,-0.002 0.862996,-0.0791 0.05368,-0.21636 0.527035,-0.10767 0.666109,0.15296 0.07152,0.13405 0.226482,0.25662 0.344165,0.27182 0.117761,0.0154 0.300934,0.10527 0.407211,0.19947 0.10627,0.0938 0.224164,0.13977 0.261482,0.10077 0.03753,-0.0389 0.170787,-0.0655 0.296106,-0.0605 0.170571,0.007 0.229928,-0.0615 0.235128,-0.27337 0.0049,-0.20184 0.06537,-0.2793 0.21084,-0.2713 0.112203,0.006 0.224044,-0.0554 0.248564,-0.13694 0.0693,-0.23066 0.368488,-0.25985 0.714685,-0.0698 0.187975,0.1032 0.325884,0.13244 0.341064,0.0723 0.01394,-0.0564 0.06269,-0.077 0.108004,-0.0481 0.140325,0.0895 0.784751,0.13952 1.005623,0.078 0.162271,-0.0452 0.242178,0.002 0.352434,0.20877 0.187482,0.35132 0.829544,0.42625 0.885734,0.10335 0.04663,-0.26804 0.564652,-0.26077 0.593762,0.008 0.03357,0.31075 0.212666,-0.145 0.264066,-0.67179 0.04873,-0.49917 0.177825,-0.64614 0.487309,-0.55604 0.192991,0.0562 0.643865,-0.15081 0.779798,-0.35812 0.0402,-0.061 0.07121,-0.0612 0.07751,-5.2e-4 0.0059,0.0555 0.07435,5.3e-4 0.152446,-0.12195 0.07804,-0.12258 0.184114,-0.19568 0.235644,-0.16278 0.125805,0.0802 0.45887,-0.45509 0.38654,-0.62116 -0.04268,-0.098 -0.09325,-0.0927 -0.202055,0.0191 -0.170063,0.17595 -0.368629,0.12688 -0.434599,-0.10697 -0.04993,-0.17699 0.38465,-0.29763 0.913123,-0.25373 0.217753,0.0181 0.281734,-0.025 0.267684,-0.17983 -0.01038,-0.11211 0.04752,-0.22602 0.128157,-0.25322 0.147272,-0.0497 0.263816,-0.34477 0.286804,-0.72657 0.0028,-0.047 0.075,-0.082 0.160714,-0.077 0.08572,0.005 0.159514,0.0476 0.163814,0.0951 0.0043,0.0475 0.101178,0.0912 0.215491,0.0982 0.114242,0.006 0.203854,-0.032 0.198954,-0.0858 -0.0049,-0.0538 0.120606,-0.17093 0.279053,-0.25993 0.38205,-0.21489 0.444099,-0.5297 0.108004,-0.5488 -0.333037,-0.0189 -0.793759,-0.255 -0.808219,-0.41445 -0.0065,-0.0716 -0.0551,-0.14811 -0.108521,-0.17001 -0.0534,-0.0219 -0.12393,-0.15767 -0.15658,-0.30128 -0.03267,-0.14362 -0.123804,-0.32574 -0.202054,-0.40514 -0.07826,-0.0794 -0.152288,-0.25794 -0.164848,-0.39636 -0.01256,-0.13842 -0.06941,-0.25435 -0.126607,-0.25735 -0.05714,-0.003 -0.11044,-0.0776 -0.11834,-0.16484 -0.0079,-0.0873 -0.08351,-0.18786 -0.167948,-0.22376 -0.08438,-0.0359 -0.144712,-0.15069 -0.133842,-0.25529 0.01082,-0.10464 -0.05132,-0.24921 -0.138493,-0.32091 -0.08712,-0.0718 -0.136789,-0.1703 -0.110071,-0.2191 0.02671,-0.0488 0.0067,-0.14893 -0.04444,-0.22273 -0.168548,-0.24345 -0.158634,-0.39539 0.02532,-0.38499 0.306544,0.0174 0.31381,-0.10313 0.02015,-0.33383 l -0.280603,-0.22066 0.208773,-0.14262 c 0.120316,-0.0825 0.181737,-0.21893 0.145727,-0.32246 -0.04588,-0.13202 -0.0038,-0.16942 0.159164,-0.14212 0.121799,0.0205 0.303759,0.0463 0.404109,0.0563 0.100404,0.0104 0.189088,0.0892 0.196888,0.17467 0.0077,0.0854 0.0714,0.14662 0.141593,0.13642 0.0748,-0.0109 0.137105,0.0888 0.150895,0.24082 0.0138,0.15206 0.07612,0.25119 0.150895,0.24029 0.07003,-0.0101 0.131743,0.0283 0.136943,0.0853 0.01686,0.18557 0.268167,0.1241 0.390157,-0.0956 0.102737,-0.18501 0.0982,-0.2072 -0.03204,-0.1633 -0.08356,0.0282 -0.242702,-0.0459 -0.356568,-0.16588 -0.17126,-0.18046 -0.187251,-0.24978 -0.0956,-0.41496 0.06019,-0.10913 0.07858,-0.24478 0.03979,-0.30128 -0.03878,-0.0565 0.03669,-0.10341 0.167948,-0.10335 l 0.238228,-5.2e-4 -0.237711,-0.0584 c -0.337545,-0.0826 -0.330193,-0.38655 0.0217,-0.89969 0.328427,-0.47882 0.931957,-0.80474 1.571997,-0.84904 0.54579,-0.0378 0.592329,-0.0725 0.560689,-0.42116 -0.02974,-0.32779 0.262646,-0.57453 0.768429,-0.64803 0.243114,-0.0353 0.308767,-0.008 0.321427,0.13126 0.01204,0.13266 0.07172,0.16214 0.243913,0.12144 0.125221,-0.0296 0.307373,-0.0718 0.405143,-0.094 0.249787,-0.0567 0.354163,0.22866 0.279053,0.76326 -0.03478,0.24748 -0.02282,0.45275 0.02635,0.45475 0.04923,0.003 0.08563,-0.036 0.08113,-0.0863 -0.0045,-0.0503 0.08253,-0.11064 0.193787,-0.13384 0.168951,-0.0353 0.186498,-0.0996 0.10542,-0.39222 -0.05336,-0.19272 -0.161486,-0.42407 -0.240296,-0.51367 -0.0788,-0.0895 -0.146362,-0.32534 -0.149862,-0.524 -0.0078,-0.44836 -0.07821,-0.56498 -0.253214,-0.41909 -0.140963,0.1175 -0.405155,-0.0223 -0.621151,-0.32866 -0.05293,-0.0749 -0.138049,-0.11155 -0.188619,-0.0817 -0.05061,0.0301 -0.09824,-0.0142 -0.105936,-0.0982 -0.01008,-0.11105 -0.09679,-0.14372 -0.320911,-0.12092 -0.178633,0.0183 -0.311493,-0.0146 -0.317293,-0.0785 -0.02421,-0.26681 -1.605222,-0.15945 -1.758033,0.11937 -0.111925,0.20421 -0.850219,0.0978 -1.137915,-0.16381 -0.234109,-0.21293 -0.383471,-0.25146 -1.139982,-0.29456 -0.854998,-0.0487 -0.869811,-0.0536 -0.819071,-0.27853 0.113836,-0.50708 0.189526,-0.68547 0.289905,-0.69247 0.421992,-0.0277 1.065124,-0.26372 1.241784,-0.45682 0.09786,-0.10656 0.317517,-0.24637 0.488343,-0.31057 0.170819,-0.0642 0.41217,-0.2292 0.535367,-0.36742 0.12362,-0.138 0.25746,-0.22994 0.29714,-0.20464 0.03975,0.0254 0.16959,-0.13308 0.288871,-0.35192 0.148058,-0.27171 0.382601,-0.47257 0.73949,-0.63407 0.134015,-0.0606 0.28354,-0.1573 0.42168,-0.26096 -0.151043,-0.0425 -0.365529,-0.10168 -0.410828,-0.11576 -0.08774,-0.0273 -0.244015,-0.0579 -0.347782,-0.0682 -0.103717,-0.0102 -0.165943,-0.0606 -0.137977,-0.11162 0.02799,-0.051 -0.04593,-0.12805 -0.164331,-0.17105 -0.118415,-0.0431 -0.219652,-0.12429 -0.224792,-0.18087 -0.0051,-0.0565 -0.147084,-0.0888 -0.315743,-0.0718 -0.168708,0.0172 -0.339586,-0.0157 -0.379305,-0.0739 -0.03965,-0.0578 -0.146381,-0.079 -0.237195,-0.047 -0.09079,0.0319 -0.234081,0.0674 -0.318327,0.0785 -0.08428,0.0112 -0.336815,0.0472 -0.561206,0.0801 -0.224375,0.0329 -0.771865,0.0428 -1.21698,0.0217 -0.67968,-0.0323 -0.85749,-0.0763 -1.11001,-0.27699 l -0.300756,-0.23926 0.189652,-0.4656 c 0.147793,-0.3626 0.258205,-0.47571 0.498161,-0.51057 0.16953,-0.0246 0.330349,-0.0846 0.357084,-0.13332 0.02681,-0.0488 0.08913,-0.063 0.13901,-0.031 0.04985,0.0318 0.112057,-0.0126 0.137976,-0.0987 0.02715,-0.0904 0.0056,-0.13264 -0.05064,-0.0992 -0.05372,0.0319 -0.279144,-0.12603 -0.500745,-0.3514 l -0.403076,-0.40979 -0.314709,0.17622 c -0.173397,0.0968 -0.371536,0.23319 -0.440284,0.30334 -0.06886,0.0702 -0.187061,0.12415 -0.262516,0.11989 -0.0755,-0.004 -0.159011,0.0656 -0.186035,0.15554 -0.03223,0.10743 -0.126333,0.14009 -0.272852,0.0946 -0.238212,-0.0739 -0.288768,-0.0432 -0.872298,0.52865 -0.207157,0.20305 -0.381564,0.3324 -0.387573,0.28732 -0.0058,-0.0451 -0.08643,0.0145 -0.1788,0.13229 -0.196431,0.25054 -0.363728,0.28954 -0.695565,0.16227 -0.228108,-0.0875 -0.303826,-0.2092 -0.274919,-0.44132 0.007,-0.0563 0.02226,-0.19116 0.03411,-0.29972 0.02302,-0.21086 0.189489,-0.35363 0.401009,-0.34417 0.07131,0.003 0.125331,-0.0382 0.120406,-0.092 -0.0049,-0.0538 0.08631,-0.0744 0.202571,-0.046 0.116279,0.0285 0.208074,0.0115 0.203606,-0.0377 -0.0045,-0.0492 0.140962,-0.11327 0.322977,-0.14263 0.398852,-0.0642 0.75809,-0.22977 1.02061,-0.47025 0.490189,-0.44899 0.883926,-0.64609 1.255737,-0.6289 0.300077,0.0135 0.385528,-0.0236 0.373104,-0.1633 -0.01665,-0.18668 -0.105627,-0.2238 -0.515731,-0.21342 -0.130737,0.003 -0.364269,-0.0789 -0.519348,-0.18294 -0.263708,-0.17689 -0.316878,-0.17976 -0.818555,-0.047 -0.410883,0.10864 -0.58915,0.1122 -0.76171,0.015 -0.123894,-0.0699 -0.231857,-0.16052 -0.240296,-0.20154 -0.147404,-0.7147 -0.409691,-1.36955 -0.63562,-1.58801 -0.29865,-0.28875 -0.425281,-0.30558 -0.481107,-0.0646 -0.0234,0.10078 -0.193737,0.2304 -0.378272,0.28836 -0.184544,0.0579 -0.377956,0.21875 -0.429948,0.35708 -0.119198,0.31718 -0.259736,0.31317 -0.36897,-0.0103 -0.10975,-0.32518 -0.277491,-0.38935 -0.706933,-0.27078 -0.321426,0.0887 -0.346987,0.1303 -0.321944,0.5302 0.03622,0.57842 0.18733,0.7966 0.296622,0.4284 0.105039,-0.35387 0.37545,-0.43859 1.019576,-0.32091 0.325452,0.0594 0.524776,0.0542 0.545187,-0.0145 0.0176,-0.0596 0.07819,-0.0132 0.134875,0.10335 0.05665,0.11662 0.16969,0.27752 0.251148,0.35708 0.08146,0.0796 0.153812,0.20659 0.160713,0.28267 0.0076,0.0845 0.08712,0.1231 0.204122,0.0987 0.105266,-0.0219 0.226331,0.0105 0.269235,0.0734 0.147412,0.21483 -0.471007,1.01251 -0.715202,0.92242 -0.04727,-0.0174 -0.150601,0.0347 -0.229444,0.11627 -0.07925,0.0813 -0.111548,0.15023 -0.07235,0.15245 0.03921,0.003 0.0053,0.11659 -0.07545,0.25373 -0.08062,0.1372 -0.09877,0.25195 -0.04031,0.25528 0.234061,0.0133 0.138775,0.4179 -0.110071,0.46716 -0.13958,0.0277 -0.250095,0.0919 -0.245463,0.14262 0.0046,0.0508 -0.0337,0.078 -0.08527,0.061 -0.05156,-0.0171 -0.201925,0.0899 -0.334346,0.23771 -0.25656,0.28738 -0.57277,0.26005 -0.541053,-0.0465 0.01024,-0.099 -0.02939,-0.24822 -0.08785,-0.33176 -0.05848,-0.0835 -0.103038,-0.10981 -0.09922,-0.0584 0.0038,0.0515 -0.0881,0.01 -0.204122,-0.0935 -0.198714,-0.17626 -0.214775,-0.1768 -0.275952,-0.006 -0.07538,0.21025 -0.0935,0.29321 -0.09767,0.44339 -0.0018,0.0599 -0.04967,0.079 -0.10697,0.0424 -0.05732,-0.0366 -0.147858,0.0285 -0.201021,0.14418 -0.082,0.17839 -0.123345,0.18812 -0.273369,0.0646 -0.09731,-0.0801 -0.263472,-0.15059 -0.368969,-0.15658 -0.105457,-0.006 -0.195063,-0.0461 -0.198955,-0.0889 -0.0038,-0.0428 -0.01184,-0.12907 -0.01757,-0.19224 -0.0064,-0.071 0.09218,-0.0843 0.257866,-0.0346 0.192775,0.0579 0.28167,0.0344 0.317293,-0.0842 0.02731,-0.0905 -0.01146,-0.20374 -0.08578,-0.25115 -0.07428,-0.0473 -0.13173,-0.17328 -0.127641,-0.28009 0.01084,-0.28264 -0.258574,-0.78247 -0.409794,-0.76016 -0.07969,0.0118 -0.154434,-0.11556 -0.194303,-0.33021 -0.05711,-0.30745 -0.09493,-0.34544 -0.313159,-0.31574 -0.372083,0.0508 -0.325963,-0.18749 0.07545,-0.39016 0.190178,-0.0961 0.341773,-0.21829 0.336931,-0.27182 -0.0049,-0.0536 0.02494,-0.0652 0.06615,-0.0253 0.04112,0.0397 0.13203,-0.0175 0.202054,-0.12764 0.07006,-0.11001 0.170279,-0.17248 0.221175,-0.14004 0.12578,0.0802 0.458905,-0.45505 0.38654,-0.62115 -0.04268,-0.098 -0.0937,-0.093 -0.202055,0.0191 -0.170539,0.17559 -0.368637,0.12733 -0.434598,-0.10646 -0.04994,-0.17698 0.384648,-0.29767 0.913122,-0.25373 0.217741,0.0174 0.281788,-0.0249 0.267684,-0.17983 -0.01022,-0.11201 0.04759,-0.22596 0.128158,-0.25322 0.147248,-0.0497 0.263774,-0.34532 0.286804,-0.72708 0.0028,-0.0471 0.07499,-0.0814 0.160713,-0.0765 0.08571,0.005 0.159502,0.0477 0.163815,0.0951 0.0043,0.0475 0.101223,0.0917 0.215491,0.0982 0.114307,0.007 0.203796,-0.032 0.198954,-0.0858 -0.0049,-0.0538 0.120685,-0.17083 0.279053,-0.25993 0.382046,-0.21487 0.444089,-0.52968 0.108003,-0.5488 -0.333017,-0.019 -0.793231,-0.25552 -0.807702,-0.41496 -0.0065,-0.0716 -0.05565,-0.14809 -0.109038,-0.17002 -0.05342,-0.0219 -0.123905,-0.15714 -0.156579,-0.30076 -0.03264,-0.14361 -0.123284,-0.32629 -0.201538,-0.40566 -0.07825,-0.0794 -0.152801,-0.25742 -0.165365,-0.39584 -0.0012,-0.0131 -0.0068,-0.0215 -0.0088,-0.0341 -0.08549,-0.13112 -0.251364,-0.22132 -0.396875,-0.23978 z m -7.093624,0.13229 c -0.103645,0.0145 -0.202858,0.0831 -0.220141,0.15296 -0.04351,0.17578 0.07529,0.16553 0.256831,-0.0222 0.140009,-0.14405 0.136226,-0.15492 -0.03669,-0.13074 z m -1.740979,0.19068 c -0.541915,-8.4e-4 -0.693121,0.0659 -0.539502,0.2403 0.165465,0.18783 0.357143,0.20405 0.792717,0.0672 0.537706,-0.16889 0.424559,-0.30602 -0.253215,-0.30748 z m 6.245097,0.0326 c -0.5138,0.009 -0.901157,0.20355 -0.879533,0.44183 0.0122,0.13443 0.110661,0.15465 0.605648,0.12454 0.35109,-0.0214 0.637934,-0.10038 0.706934,-0.19482 0.189808,-0.25978 0.05026,-0.37985 -0.433049,-0.37155 z m 10.507369,0.52762 c -0.07818,-0.004 -0.159104,9e-5 -0.249597,0.009 -0.05947,0.14055 -0.138851,0.2197 -0.218075,0.18604 -0.08036,-0.0341 -0.202865,-0.0282 -0.272334,0.0129 -0.185635,0.11003 0.358747,0.25685 0.576709,0.15554 0.09545,-0.0443 0.175861,-0.0538 0.1788,-0.0212 0.0045,0.0508 0.142108,-0.0559 0.366386,-0.25993 -0.136943,-0.0466 -0.259239,-0.0766 -0.381889,-0.0822 z m -13.972274,0.44028 c -0.04733,-0.0125 -0.133384,0.0211 -0.299206,0.0899 -0.277142,0.11494 -0.314336,0.22859 -0.104903,0.32142 0.07408,0.0329 0.142946,0.0636 0.152962,0.0687 0.01,0.005 0.08954,-0.015 0.176733,-0.0444 0.08728,-0.0294 0.150398,-0.14168 0.14056,-0.24959 -0.01045,-0.11521 -0.01881,-0.17357 -0.06615,-0.18604 z m 14.86576,0.46664 c -0.05391,0.032 -0.0922,0.12562 -0.08475,0.20774 0.0075,0.0821 0.0607,0.15178 0.117822,0.15503 0.0572,0.003 0.09476,-0.09 0.08423,-0.20723 -0.0106,-0.11732 -0.06338,-0.18751 -0.117305,-0.15554 z m -15.919442,0.29404 c -0.145279,0.0113 -0.164809,0.07 -0.149345,0.24029 0.02409,0.26548 0.229902,0.34673 0.580326,0.22841 0.08727,-0.0294 0.150915,-0.14169 0.141077,-0.24959 -0.01406,-0.1551 -0.09387,-0.20069 -0.381372,-0.21705 -0.07964,-0.005 -0.14226,-0.006 -0.190686,-0.002 z m 15.108122,0.22841 c -0.07428,-0.003 -0.05777,0.0382 0.04134,0.10387 0.211259,0.14 0.247439,0.14236 0.156063,0.009 v -5.2e-4 c -0.04052,-0.059 -0.129446,-0.10962 -0.197404,-0.11265 z m -4.33772,0.37052 c -0.08512,-0.005 -0.135254,0.0983 -0.12144,0.25063 0.02532,0.27906 0.126679,0.33384 0.295589,0.15916 v -5.2e-4 c 0.131647,-0.1364 0.02042,-0.3982 -0.174149,-0.40927 z m 3.198771,0.14624 c -0.14195,0.0297 -0.174985,0.10781 -0.12299,0.29404 0.08145,0.29161 0.180987,0.32536 0.343648,0.11627 0.157359,-0.20217 0.01853,-0.46027 -0.220658,-0.41031 z m -3.840592,0.0754 c -0.05337,0.0316 -0.09322,0.10142 -0.08837,0.15503 0.01353,0.14908 0.08523,0.12036 0.137976,-0.0553 0.0271,-0.0902 0.006,-0.13263 -0.04961,-0.0997 z m -1.444873,0.28319 c -0.0074,-0.003 -0.04248,0.0437 -0.112138,0.13694 -0.170606,0.22845 -0.172805,0.35692 -0.0067,0.36638 0.0667,0.004 0.08881,-0.0242 0.04909,-0.0625 l 5.17e-4,5.1e-4 c -0.03936,-0.038 -0.03287,-0.16523 0.01447,-0.28267 0.04185,-0.10374 0.06215,-0.15586 0.05478,-0.15864 z m 6.117456,0.44596 c -0.02515,-0.002 -0.07072,0.0422 -0.100769,0.0971 -0.03014,0.055 -0.0052,0.10304 0.05529,0.10646 0.06057,0.003 0.105582,-0.0406 0.100253,-0.0977 -0.0052,-0.057 -0.02958,-0.1045 -0.05478,-0.10594 z m -2.002462,0.2465 -0.121957,0.25011 c -0.109069,0.22365 -0.07655,0.32313 0.137977,0.41962 0.0019,6.7e-4 -1.17e-4,-0.14922 -0.0057,-0.33383 h -5.17e-4 z m -1.272791,0.31884 c -0.02282,0.0236 0.10383,0.1086 0.281637,0.18914 0.177758,0.0806 0.360788,0.23982 0.406693,0.35398 0.04586,0.11419 0.102067,0.18862 0.124541,0.16537 0.02247,-0.0232 0.0036,-0.12232 -0.04186,-0.22014 -0.08391,-0.18034 -0.694792,-0.56717 -0.771013,-0.48835 z m 8.128703,0.36587 c -0.01947,-0.008 -0.04487,-0.005 -0.07183,0.0109 -0.05391,0.032 -0.09375,0.10494 -0.08888,0.16175 0.0052,0.057 0.05356,0.0776 0.107487,0.0455 0.05391,-0.032 0.09376,-0.10494 0.08888,-0.16175 -0.0026,-0.0285 -0.01618,-0.0481 -0.03566,-0.0563 z m -7.873421,0.27595 c -0.01,0.0102 -0.01428,0.0463 -0.01137,0.10646 0.0054,0.10901 0.0358,0.17148 0.06718,0.13901 0.03134,-0.0324 0.02702,-0.12137 -0.0098,-0.19792 -0.02033,-0.0423 -0.03604,-0.0578 -0.04599,-0.0476 z m -4.603337,0.33383 c -0.100093,0.0139 -0.196798,0.0865 -0.21549,0.16175 -0.02169,0.0875 0.03143,0.12778 0.147794,0.11162 0.100099,-0.0139 0.197316,-0.0865 0.216008,-0.16174 0.02168,-0.0875 -0.03194,-0.12779 -0.148312,-0.11163 z m 13.236918,0.53072 c -0.06057,-0.003 -0.10554,0.0407 -0.100252,0.0977 0.0052,0.057 0.0296,0.1045 0.05478,0.10594 0.02515,0.002 0.07069,-0.0422 0.100769,-0.0972 0.03014,-0.055 0.0052,-0.10302 -0.05529,-0.10645 z m -11.748636,0.87798 c -0.02246,-0.002 -0.06175,0.0662 -0.08682,0.14987 -0.02512,0.0837 -4.4e-5,0.15446 0.05529,0.15761 0.0554,0.003 0.09407,-0.0638 0.0863,-0.14935 -0.0078,-0.0856 -0.03233,-0.15685 -0.05478,-0.15813 z m -1.750281,0.56948 c -0.025,0.003 -0.04543,0.0125 -0.05529,0.0305 -0.02557,0.0467 0.02174,0.0893 0.104903,0.094 0.0832,0.005 0.150246,-0.004 0.148828,-0.0202 -0.0059,-0.0643 -0.123453,-0.1139 -0.198437,-0.10438 z m -26.361699,7.30343 c 0.05717,0.003 0.136731,0.0542 0.177251,0.11317 0.0405,0.0591 0.02723,0.10429 -0.02997,0.10129 -0.05717,-0.003 -0.137247,-0.0542 -0.177767,-0.11318 -0.04046,-0.059 -0.0267,-0.10428 0.03049,-0.10128 z m 1.931665,0.85886 c 0.0079,0.003 0.0127,0.0106 0.01395,0.0248 0.01595,0.18297 -0.239536,0.61948 -0.259416,0.44338 -0.01009,-0.089 0.04237,-0.24867 0.116272,-0.3545 0.05536,-0.0794 0.105496,-0.12152 0.129191,-0.11369 z m -2.684074,0.38447 c 0.01677,-0.006 0.05087,-1.9e-4 0.0987,0.0202 0.09177,0.039 0.168533,0.0893 0.170533,0.11162 0.0076,0.0839 -0.194644,0.0255 -0.264584,-0.0765 -0.02088,-0.0305 -0.02142,-0.049 -0.0047,-0.0553 z m 46.358928,0.21704 c -0.05711,-0.003 -0.071,0.0423 -0.03049,0.10129 0.04052,0.0589 0.120577,0.11017 0.177767,0.11317 0.05711,0.003 0.07092,-0.0423 0.03049,-0.10128 -0.04052,-0.0589 -0.120657,-0.11018 -0.177767,-0.11318 z m -53.177116,0.49248 c 0.03623,0.004 0.068,0.0149 0.08682,0.0331 0.03634,0.0359 -0.02197,0.057 -0.131258,0.0465 -0.12143,-0.0118 -0.148103,-0.0378 -0.06821,-0.0661 0.03616,-0.0127 0.07642,-0.017 0.112655,-0.0134 z m 55.110331,0.36535 c -0.01495,-0.01 -0.03879,-0.006 -0.07235,0.0134 -0.04743,0.0281 -0.10364,0.15541 -0.12454,0.28267 -0.03671,0.2233 -0.03318,0.22457 0.09457,0.0388 0.110006,-0.15999 0.147167,-0.30568 0.10232,-0.33487 z m -51.485229,0.1509 c 0.03435,-0.008 0.139556,0.0238 0.307991,0.0966 0.114377,0.0494 0.166219,0.1146 0.115239,0.1447 -0.05094,0.0302 -0.188855,-0.0156 -0.306442,-0.10232 -0.114735,-0.0846 -0.151134,-0.13145 -0.116788,-0.13901 z m -1.130164,1.02267 c 0.0492,-0.004 0.116349,0.002 0.189653,0.0196 0.219489,0.0534 0.246602,0.0905 0.154512,0.20877 -0.08791,0.113 -0.08077,0.16345 0.03256,0.23565 0.07928,0.0506 0.116709,0.14209 0.0832,0.20309 -0.03356,0.0611 -0.09345,0.10677 -0.133325,0.10077 -0.130696,-0.0185 -0.426929,-0.37627 -0.420129,-0.50747 0.0036,-0.0707 0.0087,-0.16834 0.01137,-0.21704 0.0014,-0.0243 0.03297,-0.0391 0.08217,-0.0434 z m -2.539896,0.3173 c 0.16534,-0.003 0.552316,0.21397 0.867647,0.51625 0.240363,0.2304 0.465524,0.42019 0.500744,0.42219 0.132895,0.008 0.492153,0.45034 0.462505,0.56999 -0.01703,0.0686 -0.0625,0.12183 -0.10077,0.11783 -0.146258,-0.0149 -0.45227,-0.24405 -0.46147,-0.3452 -0.01223,-0.13503 -0.25235,-0.35286 -0.446484,-0.40566 -0.16661,-0.0453 -0.561209,-0.44673 -0.573609,-0.58343 -0.0044,-0.0482 -0.0781,-0.0916 -0.163814,-0.0966 -0.08568,-0.005 -0.160165,-0.0562 -0.165365,-0.11421 -0.005,-0.0548 0.0255,-0.0802 0.08062,-0.0811 z m 49.276578,0.1204 c -0.03435,0.008 0.0021,0.0544 0.116789,0.13901 0.117611,0.087 0.255461,0.13294 0.306441,0.10284 0.05098,-0.0302 -8.27e-4,-0.0952 -0.115238,-0.14469 -0.168434,-0.0728 -0.273645,-0.10471 -0.307992,-0.0972 z m -43.561682,0.54829 c 0.02873,0.007 0.04736,0.0235 0.04961,0.0481 0.0043,0.0489 -0.05991,0.11214 -0.142627,0.14004 -0.08273,0.028 -0.15363,0.0109 -0.15813,-0.0382 -0.0043,-0.049 0.05983,-0.11224 0.142627,-0.14004 0.04137,-0.014 0.07979,-0.0168 0.10852,-0.01 z m 42.431519,0.47439 c -0.0492,0.004 -0.0803,0.0191 -0.08165,0.0434 -0.0026,0.0487 -0.0083,0.14634 -0.01189,0.21704 -0.0037,0.0706 0.07324,0.21127 0.170533,0.31264 0.211821,0.22047 0.301432,0.2427 0.382922,0.094 0.03353,-0.0611 -0.0039,-0.15248 -0.0832,-0.20308 -0.11339,-0.0723 -0.120456,-0.12264 -0.03256,-0.23565 0.09207,-0.11835 0.06503,-0.15537 -0.154513,-0.20877 -0.07328,-0.0178 -0.14045,-0.0239 -0.189652,-0.0196 z m -45.742945,0.23306 c 0.06964,-0.021 0.120424,0.0747 0.140044,0.29094 0.03107,0.34322 0.204541,0.45372 0.494026,0.31523 0.177011,-0.0847 0.184298,-0.0776 0.0708,0.0692 -0.06981,0.0904 -0.212992,0.15948 -0.318327,0.15348 -0.105382,-0.006 -0.340394,0.14325 -0.522449,0.33125 -0.368648,0.38128 -0.358267,0.37632 -0.506945,0.23874 -0.05893,-0.0545 -0.202397,-0.12453 -0.318844,-0.15503 -0.174118,-0.0457 -0.144241,-0.0864 0.167948,-0.22944 0.267463,-0.1226 0.427237,-0.30134 0.541569,-0.60565 0.09409,-0.25044 0.182543,-0.38779 0.252181,-0.40876 z m 43.203048,0.0837 c -0.05512,9.6e-4 -0.08559,0.0263 -0.08061,0.0811 0.0052,0.0582 0.07966,0.10972 0.165364,0.11472 0.08572,0.005 0.159515,0.0479 0.163815,0.0961 0.0124,0.13669 0.407001,0.53813 0.573608,0.58343 0.19415,0.0528 0.434246,0.27119 0.446484,0.40617 0.0053,0.0583 0.09576,0.15779 0.201022,0.22169 0.253696,0.15345 0.324118,0.15467 0.361218,0.005 0.02969,-0.11964 -0.329618,-0.56147 -0.462504,-0.56947 -0.03522,-0.002 -0.260377,-0.1923 -0.500745,-0.42271 -0.31532,-0.30218 -0.702303,-0.51914 -0.867647,-0.51625 z m -39.679232,0.58446 c 0.157966,-0.002 0.310769,0.0499 0.412895,0.16485 0.04795,0.0529 0.05649,0.0762 0.01912,0.0496 -0.03739,-0.0266 -0.168191,0.0477 -0.290938,0.16484 -0.35908,0.34282 -0.519849,0.46616 -0.525549,0.40256 -0.0029,-0.0326 -0.08387,-0.0231 -0.179318,0.0212 -0.21796,0.10131 -0.761827,-0.0455 -0.576192,-0.15555 0.06947,-0.0411 0.191975,-0.047 0.272335,-0.0129 0.08942,0.038 0.183656,-0.0514 0.243396,-0.23099 0.08308,-0.24995 0.360975,-0.4007 0.624251,-0.40359 z m 45.394129,0.0848 c -0.02873,-0.007 -0.06716,-0.005 -0.108521,0.009 -0.08298,0.0278 -0.147127,0.0909 -0.142627,0.14004 0.0045,0.0491 0.07593,0.0667 0.158647,0.0388 0.08298,-0.0278 0.147127,-0.0909 0.142627,-0.14004 -0.0022,-0.0246 -0.02139,-0.0411 -0.05013,-0.0481 z m -46.436959,0.078 c 0.01465,0.005 0.01059,0.021 -0.02222,0.0501 -0.02193,0.0194 -0.151608,0.0845 -0.288354,0.14418 -0.234245,0.10243 -0.237807,0.0998 -0.0615,-0.0413 0.115138,-0.0919 0.328107,-0.16912 0.37207,-0.15296 z m 43.125533,0.6289 c -0.06964,0.021 -0.15809,0.15884 -0.252181,0.40928 -0.114298,0.30435 -0.274072,0.48308 -0.541569,0.60565 -0.312171,0.14296 -0.342071,0.18384 -0.167948,0.22944 0.116422,0.0306 0.259893,0.0999 0.318843,0.15451 0.148031,0.13716 0.138315,0.14254 0.506946,-0.23874 0.181882,-0.1881 0.417119,-0.33725 0.522449,-0.33125 0.105392,0.006 0.248578,-0.0631 0.318326,-0.15348 0.113394,-0.1469 0.106288,-0.15394 -0.0708,-0.0692 -0.289471,0.13849 -0.462897,0.0279 -0.494027,-0.31523 -0.01962,-0.21621 -0.0704,-0.3119 -0.140043,-0.29094 z m -41.589193,0.55501 c 0.05393,-0.032 0.106706,0.0377 0.117306,0.15503 0.01053,0.11723 -0.02755,0.21073 -0.08475,0.20773 -0.05713,-0.003 -0.109805,-0.0734 -0.117305,-0.15554 -0.0075,-0.0821 0.03084,-0.17522 0.08475,-0.20722 z m 45.113009,0.11317 c -0.263277,0.003 -0.541179,0.15362 -0.624251,0.40359 -0.05969,0.17962 -0.153998,0.26899 -0.243396,0.23099 -0.08034,-0.0342 -0.202815,-0.0281 -0.272335,0.0129 -0.08911,0.0528 -0.04837,0.0987 0.137976,0.15555 h 5.17e-4 c 0.145524,0.0442 0.342341,0.0443 0.437699,0 0.09545,-0.0444 0.176317,-0.054 0.179317,-0.0212 0.0057,0.0636 0.16643,-0.0598 0.52555,-0.40256 0.122688,-0.11713 0.254165,-0.19135 0.291455,-0.16485 0.03734,0.0267 0.02844,0.004 -0.01964,-0.0496 -0.102128,-0.11498 -0.254929,-0.16658 -0.412895,-0.16484 z m -1.126546,0.17208 c -0.05571,-0.003 -0.185496,0.0618 -0.288355,0.14418 v -5.2e-4 c -0.176337,0.14124 -0.172841,0.14373 0.06149,0.0413 0.304309,-0.13283 0.358862,-0.177 0.22686,-0.185 z m -44.797783,0.23719 c 0.06796,0.003 0.156367,0.0537 0.196887,0.11266 0.09138,0.13306 0.05571,0.13121 -0.155546,-0.009 -0.09911,-0.0657 -0.115621,-0.10687 -0.04134,-0.10387 z m -4.338236,0.37001 c 0.194569,0.0111 0.306313,0.27339 0.174666,0.40979 -0.168911,0.17468 -0.270269,0.1204 -0.295589,-0.15864 -0.01381,-0.15237 0.0358,-0.25615 0.120923,-0.25115 z m 3.198771,0.14676 c 0.23919,-0.05 0.378017,0.20814 0.220658,0.41031 -0.162662,0.20909 -0.261681,0.17534 -0.343131,-0.11627 -0.052,-0.18623 -0.01948,-0.26434 0.122473,-0.29404 z m -3.840076,0.0755 c 0.05558,-0.0329 0.07671,0.01 0.04961,0.0997 -0.05275,0.17566 -0.124446,0.20438 -0.137976,0.0553 -0.0048,-0.0536 0.035,-0.12343 0.08837,-0.15503 z m -1.444873,0.28318 c 0.0074,0.003 -0.01344,0.0544 -0.05529,0.15813 -0.04734,0.11744 -0.05383,0.24467 -0.01447,0.28267 0.03972,0.0383 0.01709,0.0665 -0.04961,0.0625 -0.166087,-0.009 -0.16337,-0.13793 0.0072,-0.36638 0.06965,-0.0933 0.104767,-0.13973 0.112138,-0.13695 z m 52.882044,0.0563 c -0.01269,-0.004 -0.02631,-0.002 -0.03979,0.006 -0.05386,0.032 -0.09215,0.12564 -0.08475,0.20774 0.0074,0.0821 0.06019,0.15203 0.117306,0.15503 0.05713,0.003 0.09535,-0.0899 0.08475,-0.20722 -0.008,-0.0881 -0.03944,-0.14951 -0.07751,-0.16123 z m -46.765105,0.38912 c 0.0252,0.001 0.05009,0.0495 0.05529,0.10646 0.0053,0.0571 -0.03968,0.10067 -0.100252,0.0977 -0.06052,-0.003 -0.08543,-0.0515 -0.05529,-0.10646 0.03005,-0.055 0.0751,-0.0997 0.100252,-0.0977 z m 45.913994,0.13901 c -0.07427,-0.003 -0.05774,0.0383 0.04134,0.10387 0.211277,0.14015 0.247453,0.14199 0.156063,0.009 -0.0405,-0.059 -0.129384,-0.10966 -0.197404,-0.11266 z m -47.915939,0.10801 0.0098,0.33589 c 0.0056,0.18461 0.0081,0.3345 0.0062,0.33383 -0.214529,-0.0965 -0.247046,-0.19596 -0.137976,-0.41961 z m 43.578219,0.26303 c -0.08508,-0.005 -0.13526,0.0983 -0.12144,0.25063 0.02532,0.27906 0.126174,0.33302 0.29559,0.15865 0.131798,-0.13632 0.02043,-0.39828 -0.17415,-0.40928 z m -44.851009,0.0558 c 0.07622,-0.0788 0.686586,0.308 0.770496,0.48834 0.04545,0.0978 0.06433,0.19694 0.04186,0.22014 -0.02247,0.0232 -0.07816,-0.0512 -0.124023,-0.16536 -0.0459,-0.11416 -0.228937,-0.27338 -0.406693,-0.35398 -0.177807,-0.0805 -0.304457,-0.16554 -0.281637,-0.18914 z m 48.049263,0.0899 c -0.141926,0.0296 -0.174463,0.10779 -0.122473,0.29404 0.0814,0.29154 0.18049,0.32537 0.343132,0.11627 0.157319,-0.20217 0.01851,-0.46031 -0.220659,-0.41031 z m -3.840075,0.076 c -0.05335,0.0316 -0.09327,0.10133 -0.08837,0.15503 0.01346,0.14898 0.08525,0.12032 0.137976,-0.0553 0.02716,-0.0909 0.006,-0.13274 -0.04961,-0.0997 z m -36.080485,0.19999 c 0.01947,0.008 0.03306,0.0278 0.03566,0.0563 0.0049,0.0568 -0.03497,0.12974 -0.08888,0.16174 -0.05393,0.0321 -0.102287,0.0115 -0.107487,-0.0455 -0.0049,-0.0568 0.03497,-0.12975 0.08888,-0.16175 0.02696,-0.0161 0.05235,-0.0191 0.07183,-0.0109 z m 34.635612,0.0832 c -0.0074,-0.003 -0.04247,0.0436 -0.112138,0.13694 -0.07876,0.1056 -0.140109,0.22985 -0.135909,0.27595 l 5.17e-4,5.2e-4 c 0.0042,0.0461 0.06203,0.0874 0.128674,0.0904 0.06624,0.004 0.08897,-0.0245 0.04961,-0.0625 -0.03935,-0.038 -0.03286,-0.16525 0.01447,-0.28267 0.04177,-0.10386 0.06213,-0.15587 0.05478,-0.15865 z m -42.509033,0.19275 c 0.0098,-0.0101 0.02547,0.006 0.04547,0.047 0.03684,0.0765 0.04116,0.16604 0.0098,0.19844 -0.03138,0.0325 -0.06126,-0.03 -0.06666,-0.13901 -0.0029,-0.0601 0.0014,-0.0962 0.01137,-0.10646 z m 43.816446,0.0935 c -0.07604,-0.0102 -0.121946,0.0454 -0.149861,0.16588 -0.0234,0.10073 -0.193737,0.23097 -0.378272,0.28887 -0.184537,0.058 -0.377908,0.21826 -0.429948,0.35657 -0.119182,0.31733 -0.25974,0.31382 -0.368969,-0.01 -0.109759,-0.3252 -0.277497,-0.38988 -0.706934,-0.2713 -0.321435,0.0888 -0.346994,0.13081 -0.321944,0.53071 0.03621,0.5784 0.187325,0.79659 0.296623,0.4284 0.105034,-0.35385 0.375412,-0.43911 1.019576,-0.32143 0.325435,0.0595 0.524826,0.0542 0.545186,-0.0145 0.01769,-0.0596 0.07823,-0.0128 0.134876,0.10387 0.05666,0.11663 0.169687,0.27697 0.251147,0.35657 0.08143,0.0796 0.153714,0.20709 0.160714,0.28319 0.0077,0.0851 0.08709,0.12268 0.204122,0.0982 0.28144,-0.0588 0.368998,0.1499 0.190686,0.45321 h 5.16e-4 c -0.152,0.25856 -0.151471,0.26298 0.03669,0.17208 0.106413,-0.0514 0.364743,-0.1596 0.573608,-0.2403 0.381687,-0.14731 0.402501,-0.3493 0.03824,-0.37 -0.107557,-0.006 -0.228705,-0.0593 -0.269235,-0.11834 -0.04042,-0.0591 -0.02812,-0.1048 0.02739,-0.1018 0.208309,0.0118 -0.220111,-1.26675 -0.522449,-1.55908 -0.149343,-0.1444 -0.255725,-0.22075 -0.331763,-0.23099 z m 4.809526,0.15968 c -0.02507,-10e-4 -0.07009,0.0421 -0.100252,0.0971 -0.03013,0.055 -0.0053,0.10345 0.05529,0.10645 0.0604,0.003 0.105452,-0.0407 0.100252,-0.0977 -0.0052,-0.057 -0.03015,-0.10393 -0.05529,-0.10593 z m -53.229309,0.0801 c 0.116377,-0.0162 0.169991,0.0241 0.148311,0.11162 -0.01869,0.0752 -0.115908,0.14836 -0.216007,0.16226 -0.116367,0.0162 -0.170002,-0.0241 -0.148312,-0.11162 0.01869,-0.0752 0.115915,-0.14836 0.216008,-0.16226 z m 51.227364,0.16691 -0.121956,0.25011 c -0.09109,0.1868 -0.08944,0.27133 0.0062,0.33383 0.07044,0.0461 0.129875,0.0846 0.131775,0.0853 0.0022,9.9e-4 -6.01e-4,-0.14923 -0.0062,-0.33383 z m -1.27279,0.31833 c -0.0228,0.0236 0.103864,0.10905 0.281636,0.18965 0.17777,0.0806 0.360844,0.23978 0.406694,0.35398 0.04587,0.11426 0.10205,0.18857 0.12454,0.16537 0.02242,-0.0232 0.0031,-0.12224 -0.04237,-0.22014 -0.08391,-0.18034 -0.693827,-0.56736 -0.770495,-0.48886 z m -36.717656,0.046 c 0.06052,0.003 0.08543,0.0509 0.05529,0.10594 v 5.1e-4 c -0.03008,0.055 -0.07562,0.0992 -0.100769,0.0971 -0.02518,-0.001 -0.05009,-0.0495 -0.05529,-0.10645 -0.0053,-0.057 0.0402,-0.10015 0.100769,-0.0971 z m 44.846358,0.32039 c -0.01948,-0.008 -0.04487,-0.006 -0.07183,0.0103 -0.05395,0.0319 -0.09408,0.10475 -0.08888,0.16175 0.0052,0.057 0.05358,0.0775 0.107487,0.0455 0.05395,-0.0319 0.09408,-0.10475 0.08888,-0.16175 -0.0026,-0.0284 -0.01617,-0.0476 -0.03566,-0.0558 z m -7.873421,0.27596 c -0.01,0.0102 -0.01452,0.0457 -0.01137,0.10593 l 5.17e-4,5.2e-4 c 0.0053,0.10892 0.03531,0.17151 0.06666,0.13901 0.03143,-0.0325 0.02699,-0.12142 -0.0098,-0.19792 -0.02039,-0.0423 -0.036,-0.0578 -0.04599,-0.0475 z m -48.722091,0.28163 c 0.02245,0.001 0.04749,0.072 0.05529,0.15761 0.0078,0.0855 -0.03142,0.15287 -0.08682,0.14987 -0.05534,-0.003 -0.0799,-0.0739 -0.05478,-0.15762 0.02507,-0.0837 0.06384,-0.15186 0.0863,-0.14986 z m 44.118755,0.0517 c -0.100086,0.0139 -0.196801,0.0871 -0.215491,0.16226 -0.02168,0.0874 0.03148,0.12782 0.147794,0.11162 0.100081,-0.0139 0.197308,-0.0871 0.216008,-0.16226 0.02168,-0.0874 -0.032,-0.12782 -0.148311,-0.11162 z m 5.214152,0.20309 c -0.188127,0.0259 -0.339812,0.19233 -0.27802,0.37 0.103003,0.29628 0.413137,0.28224 0.528133,-0.0238 0.0774,-0.20594 0.06621,-0.2683 -0.05633,-0.3204 -0.06432,-0.0273 -0.131079,-0.0345 -0.193786,-0.0258 z m -51.082671,0.31419 c 0.07499,-0.01 0.192071,0.0405 0.197921,0.1049 0.0014,0.0158 -0.06511,0.0246 -0.148311,0.0196 -0.08316,-0.005 -0.130473,-0.0468 -0.104903,-0.0935 0.0099,-0.018 0.0303,-0.0278 0.05529,-0.031 z m 30.604334,0.4625 c 0.124313,-0.0176 0.253129,-0.0186 0.373104,0.003 0.366391,0.0662 0.488709,0.55299 0.133842,0.53279 -0.10742,-0.006 -0.125792,0.0567 -0.06201,0.21549 0.06915,0.17221 0.0555,0.20227 -0.05891,0.12867 -0.246343,-0.15839 -0.433485,-0.16354 -0.576709,-0.016 -0.158281,0.16369 -0.316266,0.16637 -0.545703,0.01 -0.14458,-0.0987 -0.144323,-0.12462 0.0026,-0.20722 0.0924,-0.0519 0.143157,-0.15204 0.112137,-0.22324 -0.08188,-0.18797 0.24873,-0.3905 0.621668,-0.44339 z m 2.13217,0.0904 c 0.352023,-0.025 0.905435,0.0695 0.838708,0.1912 -0.02773,0.0506 -0.252491,0.0508 -0.499711,5.2e-4 -0.367196,-0.0747 -0.459048,-0.0598 -0.501778,0.0827 -0.0321,0.10683 0.01758,0.22609 0.128674,0.30799 0.304737,0.22475 0.0454,0.53908 -0.417545,0.50798 -0.206878,-0.0141 -0.474019,0.004 -0.593763,0.0398 -0.124556,0.0374 -0.249898,0.0192 -0.292488,-0.0429 -0.115,-0.1676 0.194607,-0.60961 0.464571,-0.66301 0.133291,-0.0259 0.237661,-0.0893 0.233061,-0.14004 -0.0046,-0.0508 0.0463,-0.0898 0.113171,-0.0858 0.06689,0.004 0.190013,-0.0547 0.272851,-0.13022 0.04213,-0.0383 0.136907,-0.0599 0.254249,-0.0682 z m -3.077849,0.17105 c 0.172916,-0.0242 0.176699,-0.0128 0.03669,0.13125 -0.181537,0.18775 -0.300341,0.198 -0.256831,0.0222 0.01728,-0.0699 0.116496,-0.13897 0.220141,-0.15347 z m -1.740979,0.19068 c 0.677774,0.001 0.790921,0.1391 0.253215,0.30799 -0.435574,0.13687 -0.627252,0.12065 -0.792717,-0.0672 -0.153619,-0.1744 -0.0024,-0.24165 0.539502,-0.24081 z m 6.245097,0.0331 c 0.483291,-0.008 0.622858,0.11126 0.433049,0.37104 -0.069,0.0944 -0.355837,0.17394 -0.706934,0.19534 -0.494982,0.0301 -0.593448,0.01 -0.605648,-0.12454 -0.02162,-0.23828 0.365733,-0.43284 0.879533,-0.44184 z m -3.464905,0.9679 c 0.04733,0.0125 0.0557,0.0708 0.06615,0.18604 0.0098,0.10793 -0.05328,0.2202 -0.14056,0.2496 -0.0872,0.0294 -0.166733,0.0494 -0.176733,0.0444 -0.01002,-0.005 -0.07888,-0.0358 -0.152962,-0.0687 -0.209433,-0.0928 -0.172239,-0.20701 0.104903,-0.32195 0.165822,-0.0688 0.251873,-0.10186 0.299206,-0.0894 z m -1.053682,0.76016 c 0.04843,-0.004 0.111041,-0.002 0.190686,0.003 0.287497,0.0164 0.367312,0.0614 0.381372,0.21652 0.0098,0.10792 -0.05381,0.22072 -0.141077,0.25012 -0.350424,0.11832 -0.556236,0.0371 -0.580326,-0.22841 -0.01546,-0.17025 0.0041,-0.22951 0.149345,-0.24082 z" /><path
           id="path10"
           style="fill:#ffffff;fill-opacity:1;stroke-width:0.483421;stroke-linecap:round;paint-order:stroke fill markers"
           d="m 54.242769,195.27834 v 0.005 c -6.225317,0.007 -8.297965,0.0614 -8.952426,0.50695 -0.750297,0.51082 -2.221569,2.51473 -2.221569,6.28695 0,3.77221 1.471272,5.77615 2.221569,6.28696 0.498577,0.33943 2.073077,0.44452 5.46375,0.4811 v 0.008 c 0.494736,0.005 1.142379,0.006 1.71359,0.009 0.514883,0.003 0.944783,0.007 1.544609,0.008 0.304471,2.8713 1.496648,4.44072 2.147672,4.88394 0.654462,0.44556 2.727628,0.49968 8.952942,0.50695 v 0.005 c 0.555955,0 0.873581,-0.002 1.378211,-0.003 0.504519,1.4e-4 0.822897,0.003 1.378727,0.003 v -0.005 c 6.225317,-0.007 8.297972,-0.0614 8.952425,-0.50695 0.750303,-0.51081 2.221573,-2.51473 2.221573,-6.28695 0,-3.77221 -1.47127,-5.77614 -2.221573,-6.28696 -0.654453,-0.44554 -2.727108,-0.49967 -8.952425,-0.50694 v -0.005 c -0.55583,0 -0.874208,0.002 -1.378727,0.003 -0.50463,-1.2e-4 -0.822256,-0.003 -1.378211,-0.003 v 0.005 c -6.225314,0.007 -8.29848,0.0614 -8.952942,0.50694 -0.653025,0.4446 -1.850861,2.02164 -2.150773,4.90978 -1.184515,-0.005 -2.294152,-0.0142 -3.255098,-0.0346 v 0.004 c -1.720901,-0.0355 -2.948148,-0.10901 -3.178101,-0.26561 -0.443631,-0.30202 -1.313098,-1.48723 -1.313098,-3.71761 0,-2.23037 0.869467,-3.41504 1.313098,-3.71708 0.38696,-0.26344 3.549223,-0.29544 7.23005,-0.29972 v -0.003 c 0.328717,0 0.517085,0.001 0.815454,0.001 0.298307,-6e-5 0.48629,-0.001 0.814937,-0.001 v 0.003 c 3.680826,0.005 6.843091,0.0363 7.23005,0.29972 0.173269,0.11797 0.411123,0.37556 0.63717,0.77256 h 0.809253 c 0.56126,0 0.87979,0.004 1.378727,0.004 0.484331,-9.7e-4 0.809567,-0.004 1.337386,-0.004 -0.480988,-1.9011 -1.353243,-2.98576 -1.876371,-3.34191 -0.654453,-0.44556 -2.727627,-0.49967 -8.952942,-0.50695 v -0.005 c -0.555829,0 -0.87369,0.002 -1.37821,0.003 -0.504629,-1.3e-4 -0.822774,-0.003 -1.378727,-0.003 z m 11.43341,8.16849 c 0.328718,0 0.516569,0.001 0.814938,0.001 0.298307,-5e-5 0.486807,-0.001 0.815454,-0.001 v 0.003 c 3.680825,0.005 6.843092,0.0363 7.230049,0.29973 0.443632,0.30203 1.313098,1.48671 1.313098,3.71708 0,2.23038 -0.869466,3.41559 -1.313098,3.71761 -0.386957,0.26345 -3.549224,0.29544 -7.230049,0.29972 v 0.003 c -0.328647,0 -0.517147,-0.001 -0.815454,-0.001 -0.298369,5e-5 -0.48622,0.001 -0.814938,0.001 v -0.003 c -3.680823,-0.005 -6.843092,-0.0362 -7.230049,-0.29972 -0.339031,-0.23081 -0.925551,-0.97946 -1.183908,-2.31408 0.612019,-9.2e-4 1.04997,-0.006 1.577165,-0.008 0.586789,-0.003 1.253612,-0.004 1.755449,-0.009 v -0.009 c 3.315709,-0.0377 4.864392,-0.14417 5.357812,-0.48007 0.526171,-0.35822 1.404953,-1.45377 1.884123,-3.37551 -0.183906,-4e-4 -0.345779,-0.002 -0.532784,-0.003 l -0.812354,-0.002 -0.81442,0.002 c -0.476805,5.4e-4 -0.905122,0.004 -1.358574,0.006 -0.23056,0.41268 -0.474962,0.68138 -0.652156,0.80202 -0.225516,0.15354 -1.403977,0.2276 -3.071647,0.26406 v -0.004 c -0.976697,0.022 -2.118308,0.0318 -3.337264,0.0362 0.255718,-1.35087 0.847339,-2.10812 1.188558,-2.34042 0.386957,-0.26345 3.549226,-0.29545 7.230049,-0.29973 z" /><g
           id="g49"
           transform="translate(27.465055,27.944328)"
           style="fill:#4d4d4d"><g
             id="g50"
             transform="matrix(0.82419779,0,0,0.82419779,210.00432,64.416904)"
             style="fill:#4d4d4d"><path
               id="path45"
               style="fill:#4d4d4d;fill-opacity:1;stroke:none;stroke-width:1.84881;stroke-linecap:round;stroke-dasharray:none;paint-order:stroke fill markers"
               d="m -176.28217,129.27668 v 0.005 c -6.88501,0.008 -8.81883,0.0149 -9.90133,0.56056 -1.08251,0.54559 -2.32128,2.33553 -2.32128,4.59704 -0.27484,4.99399 0.73089,9.13378 3.60703,9.87078 h 3.8525 c -1.41401,-1.45137 -2.77872,-2.9351 -3.45357,-4.87071 1.42381,0.14692 3.79809,0.1524 8.21665,0.15755 v 0.005 c 0.61473,0 0.96646,-0.002 1.52443,-0.003 0.0499,5e-5 0.0895,2.5e-4 0.13649,3.4e-4 0.047,-9e-5 0.0865,-2.9e-4 0.13649,-3.4e-4 0.55797,6.5e-4 0.90969,0.003 1.52443,0.003 v -0.005 c 6.88501,-0.008 8.81883,-0.0149 9.90134,-0.56054 1.0825,-0.54562 2.32127,-2.33555 2.32127,-4.59708 0,-2.26151 -1.23877,-4.05145 -2.32127,-4.59704 -1.08251,-0.54562 -3.01633,-0.55253 -9.90134,-0.56056 v -0.005 c -0.61474,0 -0.96646,0.002 -1.52443,0.003 -0.0499,-6e-5 -0.0895,-2.7e-4 -0.13649,-3.4e-4 -0.047,7e-5 -0.0865,2.8e-4 -0.13649,3.4e-4 -0.55797,-6.5e-4 -0.9097,-0.003 -1.52443,-0.003 z m 0.62302,3.07296 c 0.36346,0 0.57149,0.001 0.90141,0.001 0.0499,0 0.0912,-2.9e-4 0.13649,-3.4e-4 0.0453,5e-5 0.0865,3.4e-4 0.13649,3.4e-4 0.32992,0 0.53795,-0.001 0.90142,-0.001 v 0.003 c 4.07088,0.005 7.83453,0.0321 8.25671,0.3317 0.35694,0.25337 0.73641,0.71827 0.73641,1.75497 0,1.03671 -0.37947,1.5016 -0.73641,1.75496 -0.42218,0.29965 -4.18583,0.32711 -8.25671,0.33171 v 0.003 c -0.36347,0 -0.5715,-10e-4 -0.90142,-10e-4 -0.0499,0 -0.0912,2.9e-4 -0.13649,3.4e-4 -0.0453,-5e-5 -0.0865,-3.4e-4 -0.13649,-3.4e-4 -0.32992,0 -0.53795,10e-4 -0.90141,10e-4 v -0.003 c -4.07089,-0.005 -7.83487,-0.0321 -8.25706,-0.33171 -0.35693,-0.25335 -0.73607,-0.71825 -0.73607,-1.75496 -1e-5,-1.0367 0.37914,-1.5016 0.73607,-1.75497 0.42219,-0.29964 4.18617,-0.3271 8.25706,-0.3317 z" /><path
               id="path46"
               style="fill:#4d4d4d;fill-opacity:1;stroke-width:0.534651;stroke-linecap:round;paint-order:stroke fill markers"
               d="m -155.79997,129.27971 c -0.82981,0.56496 -2.77094,3.3867 -2.77094,7.55866 0,4.17197 1.62694,6.38837 2.45675,6.95331 0.72382,0.49278 3.0163,0.5525 9.90134,0.56055 v 0.005 c 0.61487,0 0.967,-0.002 1.52511,-0.003 0.55799,1.4e-4 0.90936,0.003 1.52409,0.003 v -0.005 c 6.88505,-0.008 9.17786,-0.0678 9.90167,-0.56055 0.65935,-0.44889 1.81915,-1.94501 2.269,-4.63169 h -3.68308 v -0.002 c -0.32492,1.0006 -0.80976,1.58385 -1.11396,1.79096 -0.42797,0.29136 -3.9254,0.32697 -7.9963,0.33171 v 0.003 c -0.36348,0 -0.5715,-0.001 -0.90142,-0.001 -0.32999,6e-5 -0.53854,0.001 -0.9021,0.001 v -0.003 c -4.0709,-0.005 -7.56833,-0.0403 -7.9963,-0.33171 -0.49065,-0.33404 -1.45246,-1.64447 -1.45246,-4.11122 0,-2.46674 0.66141,-4.02814 2.79608,-7.55805 z"
               sodipodi:nodetypes="csscccccscccscccccsscc" /><path
               id="path47"
               style="fill:#4d4d4d;fill-opacity:1;stroke:none;stroke-width:1.84881;stroke-linecap:round;stroke-dasharray:none;paint-order:stroke fill markers"
               d="m -116.55998,129.27701 v 0.005 c -6.88502,0.008 -8.81884,0.0149 -9.90134,0.56055 -1.08251,0.54559 -2.32128,2.42663 -2.32128,4.68814 -0.27484,4.99398 0.73089,9.13379 3.60703,9.87077 h 3.85284 c -1.41408,-1.45145 -2.77909,-2.93495 -3.45391,-4.87071 1.42377,0.14696 3.79769,0.15239 8.21666,0.15755 v 0.005 c 0.61472,0 0.96645,-0.002 1.52443,-0.003 0.0499,5e-5 0.0895,2.7e-4 0.13648,3.4e-4 0.047,-7e-5 0.0865,-2.9e-4 0.13649,-3.4e-4 0.55797,6.5e-4 0.9097,0.003 1.52443,0.003 v -0.005 c 4.41857,-0.005 6.79284,-0.0103 8.21665,-0.1572 -0.67485,1.93561 -2.03956,3.41899 -3.45356,4.87036 h 3.85249 c 2.87615,-0.73697 3.88188,-4.87678 3.60704,-9.87077 0,-2.2615 -1.23878,-4.14253 -2.32128,-4.68813 -1.08251,-0.54561 -3.01633,-0.55252 -9.90134,-0.56056 v -0.005 c -0.61473,0 -0.96646,0.002 -1.52443,0.003 -0.0499,-5e-5 -0.0895,-2.5e-4 -0.13649,-3.2e-4 -0.047,7e-5 -0.0865,2.7e-4 -0.13648,3.2e-4 -0.55798,-6.6e-4 -0.90971,-0.003 -1.52443,-0.003 z m 0.62301,3.07297 c 0.36346,0 0.57149,0.001 0.90142,0.001 0.0499,0 0.0912,-2.8e-4 0.13648,-3.4e-4 0.0453,6e-5 0.0865,3.4e-4 0.13649,3.4e-4 0.32992,0 0.53796,-0.001 0.90142,-0.001 v 0.003 c 4.07088,0.005 7.83487,0.0321 8.25705,0.33171 0.3569,0.25333 0.73599,0.80925 0.73607,1.8457 v 3.4e-4 c 0,1.03671 -0.37913,1.5016 -0.73607,1.75497 -0.42218,0.29964 -4.18617,0.32711 -8.25705,0.3317 v 0.003 c -0.36346,0 -0.5715,-10e-4 -0.90142,-10e-4 -0.0499,0 -0.0912,2.9e-4 -0.13649,3.4e-4 -0.0453,-5e-5 -0.0865,-3.4e-4 -0.13648,-3.4e-4 -0.32993,0 -0.53796,10e-4 -0.90142,10e-4 v -0.003 c -4.07089,-0.005 -7.83487,-0.0321 -8.25706,-0.3317 -0.35681,-0.25328 -0.73581,-0.71801 -0.73607,-1.75395 1.1e-4,-4.6e-4 2.3e-4,-6.6e-4 3.4e-4,-10e-4 h -3.4e-4 c 8e-5,-1.03645 0.37919,-1.59238 0.73607,-1.8457 0.42219,-0.29965 4.18617,-0.32711 8.25706,-0.33171 z"
               sodipodi:nodetypes="ccccccccccccccccccscccccccscscccsssccscsccccccscc" /><path
               id="path48"
               style="fill:#4d4d4d;fill-opacity:1;stroke:none;stroke-width:1.84881;stroke-linecap:round;stroke-dasharray:none;paint-order:stroke fill markers"
               d="m -96.4839,129.27969 c -1.0825,0.54557 -2.32128,2.98951 -2.32128,5.25101 0,2.26153 1.23878,4.05147 2.32128,4.59706 1.08251,0.54564 3.01634,0.55253 9.90134,0.56056 v 0.005 c 0.61473,0 0.96646,-0.002 1.52443,-0.003 0.0499,5e-5 0.0895,2.7e-4 0.13649,3.3e-4 0.047,-6e-5 0.0865,-2.8e-4 0.13649,-3.3e-4 0.55797,6.5e-4 0.9097,0.003 1.52443,0.003 v -0.005 c 4.41886,-0.005 6.79287,-0.0109 8.21665,-0.15789 -0.67482,1.93577 -2.03949,3.37236 -3.45357,4.82381 h 3.8525 c 2.87608,-0.73697 3.60703,-4.82215 3.60703,-9.82354 v -3.3e-4 c 0,-2.26133 -1.23883,-4.70512 -2.32128,-5.25068 h -3.74487 c 1.4743,1.82505 2.21365,4.21394 2.21365,5.25068 v 3.3e-4 c 0,1.03672 -0.37914,1.50162 -0.73607,1.75498 -0.42219,0.29964 -4.18618,0.32709 -8.25706,0.3317 v 0.003 c -0.36346,0 -0.57149,-0.001 -0.90141,-0.001 -0.0499,0 -0.0912,2.9e-4 -0.13649,3.6e-4 -0.0453,-7e-5 -0.0865,-3.6e-4 -0.13649,-3.6e-4 -0.32992,0 -0.53795,0.001 -0.90142,0.001 v -0.003 c -4.07088,-0.005 -7.83486,-0.0321 -8.25705,-0.3317 -0.35693,-0.25336 -0.73607,-0.71826 -0.73607,-1.75498 -1e-5,-1.03669 0.73919,-3.42577 2.21365,-5.25101 z"
               sodipodi:nodetypes="cssccccccccccssccsscccscscccscc" /></g></g></g></g></g></svg>
