<?xml version="1.0" encoding="UTF-8" standalone="no"?>
<!-- Created with Inkscape (http://www.inkscape.org/) -->

<svg
   width="157.43225mm"
   height="157.16251mm"
   viewBox="0 0 157.43225 157.16251"
   version="1.1"
   id="svg5"
   xml:space="preserve"
   inkscape:version="1.2.2 (732a01da63, 2022-12-09)"
   sodipodi:docname="selector.svg"
   xmlns:inkscape="http://www.inkscape.org/namespaces/inkscape"
   xmlns:sodipodi="http://sodipodi.sourceforge.net/DTD/sodipodi-0.dtd"
   xmlns="http://www.w3.org/2000/svg"
   xmlns:svg="http://www.w3.org/2000/svg"><sodipodi:namedview
     id="namedview7"
     pagecolor="#ffffff"
     bordercolor="#000000"
     borderopacity="0.25"
     inkscape:showpageshadow="2"
     inkscape:pageopacity="0.0"
     inkscape:pagecheckerboard="0"
     inkscape:deskcolor="#d1d1d1"
     inkscape:document-units="mm"
     showgrid="false"
     inkscape:zoom="0.74564394"
     inkscape:cx="268.8951"
     inkscape:cy="254.81331"
     inkscape:window-width="1920"
     inkscape:window-height="1017"
     inkscape:window-x="1912"
     inkscape:window-y="-8"
     inkscape:window-maximized="1"
     inkscape:current-layer="layer1" /><defs
     id="defs2" /><g
     inkscape:label="Layer 1"
     inkscape:groupmode="layer"
     id="layer1"><path
       id="path2476"
       style="fill:#ffffff;stroke-width:0.264583"
       d="m 0.00259,0 v 25.929167 25.929167 h 5.29166 5.29167 v -20.6375 -20.6375 H 32.14946 53.713 V 5.291667 0 H 26.8578 Z m 103.71666,0 v 5.291667 5.291667 h 21.56355 21.56354 v 20.6375 20.6375 h 5.29166 5.29167 V 25.929167 0 H 130.57446 Z M 10.58592,101.85373 5.3604,101.92556 0.13488,101.99688 0.0677,129.57969 0,157.1625 H 26.85676 53.713 v -5.29167 -5.29166 H 32.14946 10.58592 v -22.36246 z m 136.26042,0 v 22.36246 22.36298 H 125.2828 103.71925 v 5.29166 5.29167 h 26.85625 26.85675 l -0.0677,-27.58281 -0.0672,-27.58281 -5.22552,-0.0718 z" /></g></svg>
